<?xml version="1.0" encoding="UTF-8"?>
<svg id="Layer_1" data-name="Layer 1" xmlns="http://www.w3.org/2000/svg" viewBox="0 0 48 48">
  <defs>
    <style>
      .cls-1 {
        fill: #4285f4;
      }

      .cls-2 {
        fill: #f4b400;
      }

      .cls-3 {
        fill: #db4437;
      }

      .cls-4 {
        fill: #0f9d58;
      }
    </style>
  </defs>
  <path class="cls-1" d="M19.59,28.08l-12.4-7.16c-1.7-.96-3.85-.36-4.81,1.34-.94,1.67-.37,3.79,1.28,4.77l12.4,7.16c1.72,.93,3.86,.29,4.78-1.43,.89-1.65,.34-3.7-1.25-4.68Z"/>
  <path class="cls-4" d="M44.31,20.92l-12.4-7.16c-1.71-.94-3.85-.31-4.79,1.4-.91,1.66-.35,3.73,1.26,4.71l12.4,7.16c1.69,.97,3.85,.4,4.82-1.29,.97-1.69,.4-3.85-1.29-4.82Z"/>
  <path class="cls-2" d="M40.29,27.89l-5.79-3.34-6.12,3.54c-1.69,.97-2.27,3.13-1.29,4.82,.97,1.69,3.13,2.27,4.82,1.29l9.96-5.75c-.56-.08-1.1-.27-1.59-.56Z"/>
  <path class="cls-3" d="M7.68,20.07l5.79,3.34,6.12-3.54c1.66-1.02,2.18-3.2,1.15-4.86-.98-1.59-3.04-2.14-4.68-1.25l-9.96,5.75c.56,.08,1.1,.27,1.59,.55Z"/>
</svg>