<svg width="102" height="84" viewBox="0 0 102 84" fill="none" xmlns="http://www.w3.org/2000/svg">
<g id="countdown vector">
<path id="Vector" d="M62.1467 20.0619C69.1049 23.495 76.0251 27.0052 83.029 30.3458C89.6446 33.4947 98.9173 35.2507 95.8672 45.3862C92.162 57.7106 88.7512 71.0433 75.1933 76.8766C68.6263 79.6964 64.1944 73.0608 58.7934 70.8946C44.6699 65.192 30.8193 58.8186 17.0223 52.3757C5.66316 47.059 2.90111 38.409 9.35827 27.7875C15.5558 17.5749 16.0426 -1.49604 36.8181 8.96516C45.0429 13.119 53.3283 17.111 61.5912 21.1878C61.7738 20.8177 61.9641 20.4321 62.1467 20.0619ZM43.4236 57.4625C43.4616 57.3853 43.5073 57.2928 43.5453 57.2157C51.2801 61.0319 59.2971 64.3545 66.681 68.7647C81.1923 77.4393 81.7614 62.7813 85.4638 56.7646C89.2807 50.5551 95.5323 41.2897 82.2151 35.8315C66.2594 29.3016 50.3862 22.448 34.9397 14.8078C26.4438 10.6161 23.4061 13.7198 18.8759 20.6704C8.40959 36.6778 10.9481 46.3681 30.2307 51.1259C34.8653 52.2619 39.0436 55.3015 43.4236 57.4625Z" fill="#FBBC04" fill-opacity="0.5"/>
<path id="Vector_2" d="M48.8938 45.2402C45.4121 43.7586 44.0151 41.8684 45.64 38.8112C47.3195 35.6431 49.5296 33.8393 53.3626 35.632C56.29 37.0173 57.1403 39.071 55.9137 41.9506C54.3824 45.4871 51.8524 46.759 48.9016 45.2244L48.8938 45.2402Z" fill="#FBBC04" fill-opacity="0.6"/>
<path id="Vector_3" d="M71.7103 44.7019C74.4844 46.4068 76.3267 48.7726 74.7743 51.7606C73.1468 54.8611 70.0267 55.6003 66.642 54.0238C63.3119 52.4554 62.701 49.614 64.5186 46.9995C66.0278 44.8119 68.2742 42.5957 71.7028 44.7169L71.7103 44.7019Z" fill="#FBBC04" fill-opacity="0.4"/>
<path id="Vector_4" d="M33.978 27.7661C36.8771 29.2887 39.1651 31.4332 37.6232 34.4762C35.9787 37.7271 32.1822 37.5713 29.1856 36.3698C25.4167 34.8427 26.6195 31.7061 27.5854 29.1729C28.7499 26.0729 31.2331 26.301 33.9943 27.7741L33.978 27.7661Z" fill="#FBBC04" fill-opacity="0.8"/>
</g>
</svg>
