<svg width="333" height="31" viewBox="0 0 333 31" fill="none" xmlns="http://www.w3.org/2000/svg">
<path d="M0.0467189 1.36H8.72672C11.6601 1.36 14.2201 1.97333 16.4067 3.2C18.5934 4.4 20.2734 6.08 21.4467 8.24C22.6201 10.4 23.2067 12.88 23.2067 15.68C23.2067 18.48 22.6201 20.96 21.4467 23.12C20.2734 25.28 18.5934 26.9733 16.4067 28.2C14.2201 29.4 11.6601 30 8.72672 30H0.0467189V1.36ZM8.72672 26.76C12.1134 26.76 14.7934 25.7867 16.7667 23.84C18.7401 21.8933 19.7267 19.1733 19.7267 15.68C19.7267 12.1867 18.7401 9.46667 16.7667 7.52C14.7934 5.57333 12.1134 4.6 8.72672 4.6H3.44672V26.76H8.72672ZM35.6677 30.64C33.7477 30.64 32.0277 30.1867 30.5077 29.28C29.0143 28.3733 27.841 27.12 26.9877 25.52C26.1343 23.92 25.7077 22.1067 25.7077 20.08C25.7077 18.16 26.1077 16.4 26.9077 14.8C27.7077 13.1733 28.841 11.8933 30.3077 10.96C31.801 10 33.5077 9.52 35.4277 9.52C37.3477 9.52 39.0277 9.96 40.4677 10.84C41.9343 11.6933 43.0543 12.9067 43.8277 14.48C44.601 16.0533 44.9877 17.8667 44.9877 19.92C44.9877 20.2933 44.961 20.56 44.9077 20.72H29.1477C29.201 22.2133 29.561 23.48 30.2277 24.52C30.8943 25.5333 31.721 26.2933 32.7077 26.8C33.721 27.3067 34.761 27.56 35.8277 27.56C38.3343 27.56 40.2677 26.3333 41.6277 23.88L44.6277 25.32C43.7743 26.92 42.5877 28.2133 41.0677 29.2C39.5743 30.16 37.7743 30.64 35.6677 30.64ZM41.3877 17.88C41.3343 17.08 41.1077 16.28 40.7077 15.48C40.3077 14.68 39.6543 14 38.7477 13.44C37.8677 12.88 36.7343 12.6 35.3477 12.6C33.8543 12.6 32.561 13.08 31.4677 14.04C30.3743 15 29.681 16.28 29.3877 17.88H41.3877ZM46.1892 10.16H49.8692L55.9492 26H56.0292L62.1892 10.16H65.7892L57.6692 30H54.2292L46.1892 10.16ZM70.8273 13.24H67.1073V10.16H70.8273V7.4C70.8273 6.12 71.1073 5 71.6673 4.04C72.254 3.08 73.0273 2.34666 73.9873 1.84C74.974 1.30666 76.0673 1.04 77.2673 1.04C77.934 1.04 78.4673 1.08 78.8673 1.16C79.294 1.24 79.734 1.36 80.1873 1.52V4.84C79.334 4.41333 78.4007 4.2 77.3873 4.2C76.5073 4.2 75.7607 4.52 75.1473 5.16C74.534 5.77333 74.2273 6.64 74.2273 7.76V10.16H79.3473V13.24H74.2273V30H70.8273V13.24ZM90.902 30.64C88.982 30.64 87.262 30.1867 85.742 29.28C84.2487 28.3733 83.0754 27.12 82.222 25.52C81.3687 23.92 80.942 22.1067 80.942 20.08C80.942 18.16 81.342 16.4 82.142 14.8C82.942 13.1733 84.0754 11.8933 85.542 10.96C87.0354 10 88.742 9.52 90.662 9.52C92.582 9.52 94.262 9.96 95.702 10.84C97.1687 11.6933 98.2887 12.9067 99.062 14.48C99.8354 16.0533 100.222 17.8667 100.222 19.92C100.222 20.2933 100.195 20.56 100.142 20.72H84.382C84.4354 22.2133 84.7954 23.48 85.462 24.52C86.1287 25.5333 86.9554 26.2933 87.942 26.8C88.9554 27.3067 89.9954 27.56 91.062 27.56C93.5687 27.56 95.502 26.3333 96.862 23.88L99.862 25.32C99.0087 26.92 97.822 28.2133 96.302 29.2C94.8087 30.16 93.0087 30.64 90.902 30.64ZM96.622 17.88C96.5687 17.08 96.342 16.28 95.942 15.48C95.542 14.68 94.8887 14 93.982 13.44C93.102 12.88 91.9687 12.6 90.582 12.6C89.0887 12.6 87.7954 13.08 86.702 14.04C85.6087 15 84.9154 16.28 84.622 17.88H96.622ZM111.25 30.64C109.143 30.64 107.356 30.1067 105.89 29.04C104.423 27.9733 103.396 26.6533 102.81 25.08L105.81 23.76C106.343 25.0133 107.09 25.9733 108.05 26.64C109.036 27.3067 110.103 27.64 111.25 27.64C112.53 27.64 113.583 27.36 114.41 26.8C115.263 26.24 115.69 25.56 115.69 24.76C115.69 23.9867 115.37 23.3467 114.73 22.84C114.116 22.3333 113.05 21.8933 111.53 21.52L108.81 20.84C107.316 20.4933 106.036 19.8667 104.97 18.96C103.93 18.0533 103.41 16.8533 103.41 15.36C103.41 14.1333 103.756 13.08 104.45 12.2C105.17 11.32 106.116 10.6533 107.29 10.2C108.463 9.74667 109.743 9.52 111.13 9.52C112.836 9.52 114.383 9.92 115.77 10.72C117.183 11.4933 118.183 12.6 118.77 14.04L115.77 15.32C115.343 14.36 114.69 13.6533 113.81 13.2C112.956 12.7467 111.996 12.52 110.93 12.52C109.89 12.52 108.943 12.7733 108.09 13.28C107.263 13.7867 106.85 14.44 106.85 15.24C106.85 15.9333 107.116 16.48 107.65 16.88C108.21 17.28 109.09 17.64 110.29 17.96L113.25 18.68C115.223 19.1867 116.69 19.9467 117.65 20.96C118.636 21.9467 119.13 23.1333 119.13 24.52C119.13 25.6667 118.796 26.7067 118.13 27.64C117.463 28.5733 116.53 29.3067 115.33 29.84C114.13 30.3733 112.77 30.64 111.25 30.64ZM130.21 30.32C129.41 30.32 128.663 30.1867 127.97 29.92C127.303 29.6533 126.73 29.2933 126.25 28.84C125.717 28.3333 125.317 27.7467 125.05 27.08C124.81 26.3867 124.69 25.5733 124.69 24.64V13.24H121.17V10.16H124.69V4.24H128.05V10.16H132.93V13.24H128.05V23.8C128.05 24.92 128.277 25.7467 128.73 26.28C129.183 26.8667 129.877 27.16 130.81 27.16C131.637 27.16 132.357 26.9733 132.97 26.6V29.88C132.543 30.04 132.13 30.1467 131.73 30.2C131.357 30.28 130.85 30.32 130.21 30.32ZM146.883 1.36H151.803L160.963 24.84H161.123L170.243 1.36H175.163V30H171.763V11.8L171.923 6.36H171.763L162.443 30H159.603L150.283 6.36H150.123L150.283 11.8V30H146.883V1.36ZM189.652 30.64C187.732 30.64 186.012 30.1867 184.492 29.28C182.999 28.3733 181.825 27.12 180.972 25.52C180.119 23.92 179.692 22.1067 179.692 20.08C179.692 18.16 180.092 16.4 180.892 14.8C181.692 13.1733 182.825 11.8933 184.292 10.96C185.785 10 187.492 9.52 189.412 9.52C191.332 9.52 193.012 9.96 194.452 10.84C195.919 11.6933 197.039 12.9067 197.812 14.48C198.585 16.0533 198.972 17.8667 198.972 19.92C198.972 20.2933 198.945 20.56 198.892 20.72H183.132C183.185 22.2133 183.545 23.48 184.212 24.52C184.879 25.5333 185.705 26.2933 186.692 26.8C187.705 27.3067 188.745 27.56 189.812 27.56C192.319 27.56 194.252 26.3333 195.612 23.88L198.612 25.32C197.759 26.92 196.572 28.2133 195.052 29.2C193.559 30.16 191.759 30.64 189.652 30.64ZM195.372 17.88C195.319 17.08 195.092 16.28 194.692 15.48C194.292 14.68 193.639 14 192.732 13.44C191.852 12.88 190.719 12.6 189.332 12.6C187.839 12.6 186.545 13.08 185.452 14.04C184.359 15 183.665 16.28 183.372 17.88H195.372ZM211.32 30.64C209.613 30.64 208.04 30.1867 206.6 29.28C205.16 28.3733 204.013 27.12 203.16 25.52C202.306 23.8933 201.88 22.08 201.88 20.08C201.88 18.08 202.306 16.28 203.16 14.68C204.013 13.0533 205.16 11.7867 206.6 10.88C208.04 9.97333 209.613 9.52 211.32 9.52C212.866 9.52 214.253 9.86667 215.48 10.56C216.706 11.2267 217.626 12.0667 218.24 13.08H218.4L218.24 10.36V1.36H221.6V30H218.4V27.04H218.24C217.626 28.08 216.706 28.9467 215.48 29.64C214.253 30.3067 212.866 30.64 211.32 30.64ZM211.84 27.56C213.013 27.56 214.093 27.2667 215.08 26.68C216.093 26.0667 216.893 25.1867 217.48 24.04C218.093 22.8933 218.4 21.5733 218.4 20.08C218.4 18.56 218.093 17.24 217.48 16.12C216.893 14.9733 216.093 14.1067 215.08 13.52C214.093 12.9067 213.013 12.6 211.84 12.6C210.666 12.6 209.573 12.9067 208.56 13.52C207.573 14.1333 206.773 15.0133 206.16 16.16C205.573 17.28 205.28 18.5867 205.28 20.08C205.28 21.5733 205.573 22.8933 206.16 24.04C206.773 25.16 207.573 26.0267 208.56 26.64C209.573 27.2533 210.666 27.56 211.84 27.56ZM235.238 30.64C233.318 30.64 231.598 30.1867 230.078 29.28C228.585 28.3733 227.411 27.12 226.558 25.52C225.705 23.92 225.278 22.1067 225.278 20.08C225.278 18.16 225.678 16.4 226.478 14.8C227.278 13.1733 228.411 11.8933 229.878 10.96C231.371 10 233.078 9.52 234.998 9.52C236.918 9.52 238.598 9.96 240.038 10.84C241.505 11.6933 242.625 12.9067 243.398 14.48C244.171 16.0533 244.558 17.8667 244.558 19.92C244.558 20.2933 244.531 20.56 244.478 20.72H228.718C228.771 22.2133 229.131 23.48 229.798 24.52C230.465 25.5333 231.291 26.2933 232.278 26.8C233.291 27.3067 234.331 27.56 235.398 27.56C237.905 27.56 239.838 26.3333 241.198 23.88L244.198 25.32C243.345 26.92 242.158 28.2133 240.638 29.2C239.145 30.16 237.345 30.64 235.238 30.64ZM240.958 17.88C240.905 17.08 240.678 16.28 240.278 15.48C239.878 14.68 239.225 14 238.318 13.44C237.438 12.88 236.305 12.6 234.918 12.6C233.425 12.6 232.131 13.08 231.038 14.04C229.945 15 229.251 16.28 228.958 17.88H240.958ZM255.025 30.64C253.585 30.64 252.279 30.36 251.105 29.8C249.959 29.2133 249.052 28.4133 248.385 27.4C247.745 26.36 247.425 25.2 247.425 23.92C247.425 21.8133 248.212 20.1733 249.785 19C251.385 17.8267 253.425 17.24 255.905 17.24C257.132 17.24 258.239 17.3733 259.225 17.64C260.212 17.9067 260.999 18.2 261.585 18.52V17.48C261.585 16.52 261.332 15.6667 260.825 14.92C260.345 14.1467 259.692 13.56 258.865 13.16C258.039 12.7333 257.145 12.52 256.185 12.52C253.919 12.52 252.185 13.44 250.985 15.28L248.145 13.4C248.972 12.1733 250.065 11.2267 251.425 10.56C252.785 9.86667 254.319 9.52 256.025 9.52C258.745 9.52 260.892 10.2533 262.465 11.72C264.039 13.1867 264.825 15.16 264.825 17.64V30H261.585V27.08H261.425C260.785 28.0933 259.919 28.9467 258.825 29.64C257.732 30.3067 256.465 30.64 255.025 30.64ZM255.305 27.64C256.372 27.64 257.385 27.36 258.345 26.8C259.305 26.24 260.079 25.48 260.665 24.52C261.279 23.56 261.585 22.52 261.585 21.4C260.092 20.44 258.372 19.96 256.425 19.96C254.745 19.96 253.399 20.3467 252.385 21.12C251.399 21.8667 250.905 22.8267 250.905 24C250.905 25.0667 251.345 25.9467 252.225 26.64C253.105 27.3067 254.132 27.64 255.305 27.64ZM278.061 26.6C278.887 25.7733 280.527 24.12 282.981 21.64C285.434 19.1333 287.141 17.36 288.101 16.32C289.461 14.88 290.381 13.7467 290.861 12.92C291.341 12.0667 291.581 11.0533 291.581 9.88C291.581 9.08 291.381 8.33333 290.981 7.64C290.581 6.92 289.981 6.34667 289.181 5.92C288.407 5.46667 287.474 5.24 286.381 5.24C284.941 5.24 283.781 5.66667 282.901 6.52C282.021 7.34667 281.447 8.25333 281.181 9.24L278.101 8C278.367 7.14667 278.847 6.26667 279.541 5.36C280.234 4.42667 281.167 3.64 282.341 3C283.514 2.33333 284.887 2 286.461 2C288.141 2 289.634 2.36 290.941 3.08C292.247 3.8 293.261 4.76 293.981 5.96C294.701 7.16 295.061 8.45333 295.061 9.84C295.061 12.6667 293.581 15.56 290.621 18.52L282.461 26.76H295.381V30H278.061V26.6ZM299.076 26.6C299.903 25.7733 301.543 24.12 303.996 21.64C306.45 19.1333 308.156 17.36 309.116 16.32C310.476 14.88 311.396 13.7467 311.876 12.92C312.356 12.0667 312.596 11.0533 312.596 9.88C312.596 9.08 312.396 8.33333 311.996 7.64C311.596 6.92 310.996 6.34667 310.196 5.92C309.423 5.46667 308.49 5.24 307.396 5.24C305.956 5.24 304.796 5.66667 303.916 6.52C303.036 7.34667 302.463 8.25333 302.196 9.24L299.116 8C299.383 7.14667 299.863 6.26667 300.556 5.36C301.25 4.42667 302.183 3.64 303.356 3C304.53 2.33333 305.903 2 307.476 2C309.156 2 310.65 2.36 311.956 3.08C313.263 3.8 314.276 4.76 314.996 5.96C315.716 7.16 316.076 8.45333 316.076 9.84C316.076 12.6667 314.596 15.56 311.636 18.52L303.476 26.76H316.396V30H299.076V26.6ZM320.212 8.56L322.332 5.56C321.772 5.45333 321.292 5.2 320.892 4.8C320.519 4.4 320.332 3.89333 320.332 3.28C320.332 2.56 320.572 1.96 321.052 1.48C321.559 0.973331 322.172 0.719998 322.892 0.719998C323.585 0.719998 324.172 0.973331 324.652 1.48C325.159 1.96 325.412 2.56 325.412 3.28C325.412 3.70667 325.319 4.13333 325.132 4.56C324.945 4.98667 324.679 5.45333 324.332 5.96L321.852 9.6L320.212 8.56ZM326.972 8.56L329.092 5.56C328.532 5.45333 328.052 5.2 327.652 4.8C327.279 4.4 327.092 3.89333 327.092 3.28C327.092 2.56 327.332 1.96 327.812 1.48C328.319 0.973331 328.932 0.719998 329.652 0.719998C330.345 0.719998 330.932 0.973331 331.412 1.48C331.919 1.96 332.172 2.56 332.172 3.28C332.172 3.70667 332.079 4.13333 331.892 4.56C331.705 4.98667 331.439 5.45333 331.092 5.96L328.612 9.6L326.972 8.56Z" fill="#4285F4"/>
</svg>
