<svg width="276" height="70" viewBox="0 0 276 70" fill="none" xmlns="http://www.w3.org/2000/svg">
<path d="M35.4199 51.3797L27.799 55.5412L25.3264 50.1348C23.9904 51.8319 22.2873 53.1995 20.3468 54.1333C18.4063 55.0672 16.2797 55.5426 14.1291 55.5234C4.86572 55.5234 0 47.8229 0 35.7918C0 22.7827 5.73112 15.8113 14.8797 15.8113C19.1626 15.8113 22.5006 17.4207 24.673 20.4174V1.2282H32.5146V45.5109L35.4199 51.3797ZM24.673 46.1156V25.7082C22.6345 24.003 20.073 23.0605 17.423 23.0406C11.6124 23.0406 8.20372 27.4866 8.20372 35.8985C8.20372 43.9015 11.3916 48.4009 17.2728 48.4009C19.9067 48.3562 22.4734 47.5574 24.673 46.0978V46.1156Z" fill="white"/>
<path d="M74.3191 36.521H48.6306C49.1339 43.1723 54.291 47.6361 62.4153 47.6361C66.5569 47.6361 71.0517 46.7469 74.0983 45.1463L71.6345 53.2559C69.0913 54.652 64.8084 55.5234 59.8721 55.5234C48.189 55.5234 40.4975 47.5205 40.4975 35.4272C40.4975 23.334 47.827 15.8112 59.51 15.8112C69.1708 15.8112 75.264 21.3688 75.264 30.3587C75.2531 32.4486 74.9347 34.5252 74.3191 36.521ZM49.0633 31.0434H67.6077C67.2457 25.3436 64.5612 22.6404 59.5453 22.6404C54.0703 22.6404 50.3349 25.7793 49.0633 31.0434Z" fill="white"/>
<path d="M93.4111 54.5721L78.5932 16.7006H87.2296L96.8816 43.1546L97.9678 46.4447H98.2592L99.3542 43.1546L108.935 16.7006H117.448L102.701 54.5721H93.4111Z" fill="white"/>
<path d="M143.119 16.7893H160.109L159.014 22.8537H142.033L136.081 56.9105C134.412 66.4162 128.133 69.9997 119.241 69.9997C116.559 70.0114 113.886 69.6676 111.293 68.9771L111.152 62.8327C113.717 63.2618 116.315 63.4582 118.914 63.4196C124.213 63.4196 127.701 61.3032 128.495 56.8394L134.447 22.8537H122.614L123.709 16.7893H135.534L136.116 13.2858C137.785 3.85129 144.064 0.276656 152.815 0.276656C155.534 0.236227 158.245 0.580454 160.869 1.29925L161.01 7.58598C158.463 7.01903 155.856 6.77113 153.248 6.84793C148.02 6.84793 144.541 8.97314 143.737 13.4281L143.119 16.7893Z" fill="white"/>
<path d="M195.158 36.521H169.47C169.973 43.1723 175.13 47.6361 183.255 47.6361C187.396 47.6361 191.9 46.7469 194.946 45.1463L192.474 53.2559C189.939 54.652 185.657 55.5234 180.72 55.5234C169.037 55.5234 161.293 47.5205 161.293 35.4272C161.293 23.334 168.666 15.8112 180.358 15.8112C190.01 15.8112 196.103 21.3688 196.103 30.3587C196.093 32.4486 195.774 34.5252 195.158 36.521ZM169.903 31.0434H188.447C188.085 25.3436 185.401 22.6404 180.394 22.6404C174.91 22.6404 171.139 25.7793 169.903 31.0434Z" fill="white"/>
<path d="M203.583 52.3133L203.106 43.8302C206.444 46.1688 212.546 48.214 218.931 48.214C223.788 48.214 227.276 46.6845 227.276 43.2433C227.276 36.1296 203.901 42.7365 203.901 28.1267C203.901 21.3331 208.987 15.5533 221.103 15.5533C228.512 15.5533 234.172 17.385 234.172 21.92C234.097 23.2151 233.696 24.4696 233.007 25.5658C229.101 23.8685 224.897 22.9765 220.644 22.9426C214.833 22.9426 211.813 25.1301 211.813 27.5398C211.813 33.8977 235.471 28.349 235.471 42.5942C235.471 50.5971 228.503 55.5322 218.127 55.5322C213.107 55.5151 208.148 54.4176 203.583 52.3133Z" fill="white"/>
<path d="M275.791 46.5337L274.202 53.9141C271.268 54.9819 268.173 55.5265 265.053 55.5236C255.693 55.5236 251.701 50.6329 251.701 43.6882V23.3697H241.025V16.7006H251.675V6.34129H259.508V16.7006H274.679V23.3697H259.534V41.2784C259.534 46.1691 262.077 48.3921 266.502 48.3921C269.045 48.3654 273.69 47.823 275.791 46.5337Z" fill="white"/>
</svg>
