<svg width="473" height="97" viewBox="0 0 473 97" fill="none" xmlns="http://www.w3.org/2000/svg">
<path d="M55.648 73H43.36V42.568H13.216V73H0.928V4.456H13.216V32.104H43.36V4.456H55.648V73ZM84.4345 20.968V73H72.3385V20.968H84.4345ZM78.3865 0.903996C80.1785 0.903996 81.7465 1.384 83.0905 2.34399C84.4345 3.23999 85.1065 4.87199 85.1065 7.23999C85.1065 9.54399 84.4345 11.208 83.0905 12.232C81.7465 13.192 80.1785 13.672 78.3865 13.672C76.5305 13.672 74.9305 13.192 73.5865 12.232C72.3065 11.208 71.6665 9.54399 71.6665 7.23999C71.6665 4.87199 72.3065 3.23999 73.5865 2.34399C74.9305 1.384 76.5305 0.903996 78.3865 0.903996ZM117.373 20.008C120.637 20.008 123.581 20.648 126.205 21.928C128.829 23.208 131.037 25.128 132.829 27.688H133.309L134.461 20.968H144.541V73.384C144.541 78.312 143.613 82.44 141.757 85.768C139.901 89.16 137.117 91.72 133.405 93.448C129.693 95.176 125.053 96.04 119.485 96.04C115.773 96.04 112.349 95.784 109.213 95.272C106.077 94.824 103.101 94.024 100.285 92.872V82.888C102.269 83.72 104.317 84.424 106.429 85C108.605 85.64 110.845 86.12 113.149 86.44C115.453 86.76 117.821 86.92 120.253 86.92C124.221 86.92 127.229 85.8 129.277 83.56C131.389 81.32 132.445 78.12 132.445 73.96V72.616C132.445 71.656 132.477 70.536 132.541 69.256C132.669 67.976 132.765 66.952 132.829 66.184H132.445C130.653 68.872 128.477 70.856 125.917 72.136C123.357 73.352 120.413 73.96 117.085 73.96C110.749 73.96 105.789 71.592 102.205 66.856C98.621 62.12 96.829 55.528 96.829 47.08C96.829 41.384 97.629 36.52 99.229 32.488C100.893 28.456 103.261 25.384 106.333 23.272C109.405 21.096 113.085 20.008 117.373 20.008ZM120.541 29.896C118.109 29.896 116.029 30.568 114.301 31.912C112.637 33.192 111.357 35.112 110.461 37.672C109.629 40.232 109.213 43.432 109.213 47.272C109.213 52.904 110.173 57.16 112.093 60.04C114.013 62.92 116.893 64.36 120.733 64.36C122.909 64.36 124.765 64.104 126.301 63.592C127.837 63.016 129.085 62.12 130.045 60.904C131.069 59.624 131.837 58.024 132.349 56.104C132.861 54.12 133.117 51.752 133.117 49V47.176C133.117 43.016 132.669 39.688 131.773 37.192C130.877 34.632 129.501 32.776 127.645 31.624C125.853 30.472 123.485 29.896 120.541 29.896ZM172.091 17.416C172.091 19.464 171.995 21.48 171.803 23.464C171.675 25.384 171.547 26.824 171.419 27.784H172.187C173.275 25.992 174.619 24.552 176.219 23.464C177.819 22.312 179.579 21.448 181.499 20.872C183.483 20.296 185.531 20.008 187.643 20.008C191.547 20.008 194.907 20.68 197.723 22.024C200.539 23.368 202.683 25.448 204.155 28.264C205.691 31.016 206.459 34.632 206.459 39.112V73H194.363V41.512C194.363 37.544 193.595 34.6 192.059 32.68C190.523 30.76 188.091 29.8 184.763 29.8C181.563 29.8 179.035 30.504 177.179 31.912C175.323 33.256 174.011 35.272 173.243 37.96C172.475 40.584 172.091 43.816 172.091 47.656V73H159.995V0.0399952H172.091V17.416ZM233.685 73H221.589V0.0399952H233.685V73ZM261.247 20.968V73H249.151V20.968H261.247ZM255.199 0.903996C256.991 0.903996 258.559 1.384 259.903 2.34399C261.247 3.23999 261.919 4.87199 261.919 7.23999C261.919 9.54399 261.247 11.208 259.903 12.232C258.559 13.192 256.991 13.672 255.199 13.672C253.343 13.672 251.743 13.192 250.399 12.232C249.119 11.208 248.479 9.54399 248.479 7.23999C248.479 4.87199 249.119 3.23999 250.399 2.34399C251.743 1.384 253.343 0.903996 255.199 0.903996ZM294.186 20.008C297.45 20.008 300.394 20.648 303.018 21.928C305.642 23.208 307.85 25.128 309.642 27.688H310.122L311.274 20.968H321.354V73.384C321.354 78.312 320.426 82.44 318.57 85.768C316.714 89.16 313.93 91.72 310.218 93.448C306.506 95.176 301.866 96.04 296.298 96.04C292.586 96.04 289.162 95.784 286.026 95.272C282.89 94.824 279.914 94.024 277.098 92.872V82.888C279.082 83.72 281.13 84.424 283.242 85C285.418 85.64 287.658 86.12 289.962 86.44C292.266 86.76 294.634 86.92 297.066 86.92C301.034 86.92 304.042 85.8 306.09 83.56C308.202 81.32 309.258 78.12 309.258 73.96V72.616C309.258 71.656 309.29 70.536 309.354 69.256C309.482 67.976 309.578 66.952 309.642 66.184H309.258C307.466 68.872 305.29 70.856 302.73 72.136C300.17 73.352 297.226 73.96 293.898 73.96C287.562 73.96 282.602 71.592 279.018 66.856C275.434 62.12 273.642 55.528 273.642 47.08C273.642 41.384 274.442 36.52 276.042 32.488C277.706 28.456 280.074 25.384 283.146 23.272C286.218 21.096 289.898 20.008 294.186 20.008ZM297.354 29.896C294.922 29.896 292.842 30.568 291.114 31.912C289.45 33.192 288.17 35.112 287.274 37.672C286.442 40.232 286.026 43.432 286.026 47.272C286.026 52.904 286.986 57.16 288.906 60.04C290.826 62.92 293.706 64.36 297.546 64.36C299.722 64.36 301.578 64.104 303.114 63.592C304.65 63.016 305.898 62.12 306.858 60.904C307.882 59.624 308.65 58.024 309.162 56.104C309.674 54.12 309.93 51.752 309.93 49V47.176C309.93 43.016 309.482 39.688 308.586 37.192C307.69 34.632 306.314 32.776 304.458 31.624C302.666 30.472 300.298 29.896 297.354 29.896ZM348.903 17.416C348.903 19.464 348.807 21.48 348.615 23.464C348.487 25.384 348.359 26.824 348.231 27.784H348.999C350.087 25.992 351.431 24.552 353.031 23.464C354.631 22.312 356.391 21.448 358.311 20.872C360.295 20.296 362.343 20.008 364.455 20.008C368.359 20.008 371.719 20.68 374.535 22.024C377.351 23.368 379.495 25.448 380.967 28.264C382.503 31.016 383.271 34.632 383.271 39.112V73H371.175V41.512C371.175 37.544 370.407 34.6 368.871 32.68C367.335 30.76 364.903 29.8 361.575 29.8C358.375 29.8 355.847 30.504 353.991 31.912C352.135 33.256 350.823 35.272 350.055 37.96C349.287 40.584 348.903 43.816 348.903 47.656V73H336.807V0.0399952H348.903V17.416ZM418.561 64.264C420.097 64.264 421.569 64.136 422.977 63.88C424.385 63.56 425.697 63.208 426.913 62.824V71.848C425.633 72.424 423.969 72.904 421.921 73.288C419.873 73.736 417.729 73.96 415.489 73.96C412.545 73.96 409.857 73.48 407.425 72.52C405.057 71.496 403.137 69.768 401.665 67.336C400.257 64.904 399.553 61.512 399.553 57.16V30.088H392.545V24.808L400.225 20.584L404.065 9.544H411.649V20.968H426.433V30.088H411.649V57.064C411.649 59.496 412.289 61.32 413.569 62.536C414.849 63.688 416.513 64.264 418.561 64.264ZM472.825 57.928C472.825 61.384 471.993 64.328 470.329 66.76C468.665 69.128 466.201 70.92 462.937 72.136C459.737 73.352 455.801 73.96 451.129 73.96C447.481 73.96 444.345 73.704 441.721 73.192C439.097 72.68 436.601 71.88 434.233 70.792V60.52C436.793 61.736 439.641 62.76 442.777 63.592C445.913 64.424 448.825 64.84 451.513 64.84C454.841 64.84 457.241 64.328 458.713 63.304C460.185 62.28 460.921 60.904 460.921 59.176C460.921 58.152 460.633 57.224 460.057 56.392C459.481 55.56 458.361 54.696 456.697 53.8C455.033 52.84 452.505 51.656 449.113 50.248C445.785 48.904 443.001 47.56 440.761 46.216C438.585 44.872 436.921 43.272 435.769 41.416C434.681 39.496 434.137 37.096 434.137 34.216C434.137 29.544 435.993 26.024 439.705 23.656C443.417 21.224 448.313 20.008 454.393 20.008C457.593 20.008 460.601 20.328 463.417 20.968C466.297 21.544 469.177 22.504 472.057 23.848L468.217 32.776C466.617 32.072 465.017 31.464 463.417 30.952C461.881 30.376 460.313 29.928 458.713 29.608C457.177 29.288 455.609 29.128 454.009 29.128C451.385 29.128 449.401 29.544 448.057 30.376C446.713 31.144 446.041 32.232 446.041 33.64C446.041 34.728 446.361 35.688 447.001 36.52C447.705 37.288 448.889 38.088 450.553 38.92C452.281 39.688 454.713 40.712 457.849 41.992C460.985 43.208 463.641 44.488 465.817 45.832C468.057 47.112 469.785 48.712 471.001 50.632C472.217 52.552 472.825 54.984 472.825 57.928Z" fill="white"/>
</svg>
