<svg width="175" height="82" viewBox="0 0 175 82" fill="none" xmlns="http://www.w3.org/2000/svg">
<g id="logo">
<g id="devfest">
<path id="Vector" d="M20.1469 49.0962L15.9197 51.4046L14.5482 48.4057C13.8071 49.3471 12.8624 50.1057 11.7861 50.6236C10.7097 51.1416 9.53012 51.4053 8.33721 51.3947C3.19894 51.3947 0.5 47.1233 0.5 40.4499C0.5 33.2339 3.67897 29.367 8.75356 29.367C11.1292 29.367 12.9808 30.2597 14.1857 31.9219V21.278H18.5354V45.8409L20.1469 49.0962ZM14.1857 46.1763V34.8566C13.055 33.9108 11.6342 33.388 10.1643 33.3769C6.94121 33.3769 5.05048 35.8431 5.05048 40.5091C5.05048 44.9482 6.81875 47.4439 10.081 47.4439C11.5419 47.4191 12.9657 46.976 14.1857 46.1664V46.1763Z" fill="white"/>
<path id="Vector_2" d="M41.7237 40.8543H27.4747C27.7539 44.5437 30.6145 47.0197 35.1208 47.0197C37.4181 47.0197 39.9113 46.5265 41.6012 45.6387L40.2346 50.1369C38.8239 50.9113 36.4483 51.3947 33.7102 51.3947C27.2298 51.3947 22.9634 46.9556 22.9634 40.2476C22.9634 33.5397 27.0289 29.3669 33.5093 29.3669C38.868 29.3669 42.2478 32.4496 42.2478 37.4362C42.2418 38.5954 42.0652 39.7473 41.7237 40.8543ZM27.7147 37.816H38.001C37.8002 34.6544 36.3111 33.155 33.5289 33.155C30.492 33.155 28.42 34.8961 27.7147 37.816Z" fill="white"/>
<path id="Vector_3" d="M52.3138 50.867L44.0945 29.8602H48.885L54.2388 44.5339L54.8413 46.3588H55.0029L55.6103 44.5339L60.9249 29.8602H65.6468L57.4667 50.867H52.3138Z" fill="white"/>
<path id="Vector_4" d="M79.886 29.9095H89.3102L88.7028 33.2733H79.2835L75.9821 52.1641C75.0563 57.4368 71.5736 59.4245 66.6411 59.4245C65.1533 59.431 63.6711 59.2403 62.2327 58.8573L62.1543 55.4491C63.5769 55.6871 65.0179 55.796 66.4599 55.7746C69.3988 55.7746 71.3336 54.6007 71.7745 52.1247L75.0759 33.2733H68.5122L69.1196 29.9095H75.6784L76.0017 27.9662C76.9274 22.733 80.4101 20.7502 85.2643 20.7502C86.7724 20.7278 88.2761 20.9187 89.7315 21.3174L89.8098 24.8046C88.3969 24.4901 86.9507 24.3526 85.5043 24.3952C82.6045 24.3952 80.6746 25.574 80.2289 28.0451L79.886 29.9095Z" fill="white"/>
<path id="Vector_5" d="M108.751 40.8543H94.5023C94.7815 44.5437 97.6421 47.0197 102.149 47.0197C104.446 47.0197 106.944 46.5265 108.634 45.6387L107.262 50.1369C105.856 50.9113 103.481 51.3947 100.743 51.3947C94.2623 51.3947 89.9666 46.9556 89.9666 40.2476C89.9666 33.5397 94.0566 29.3669 100.542 29.3669C105.896 29.3669 109.275 32.4496 109.275 37.4362C109.269 38.5954 109.093 39.7473 108.751 40.8543ZM94.7424 37.816H105.029C104.828 34.6544 103.339 33.155 100.561 33.155C97.5197 33.155 95.4281 34.8961 94.7424 37.816Z" fill="white"/>
<path id="Vector_6" d="M113.424 49.6141L113.16 44.9087C115.011 46.2059 118.396 47.3403 121.938 47.3403C124.632 47.3403 126.566 46.4919 126.566 44.5831C126.566 40.6373 113.601 44.302 113.601 36.1982C113.601 32.4299 116.422 29.2239 123.143 29.2239C127.252 29.2239 130.392 30.2399 130.392 32.7554C130.35 33.4738 130.128 34.1696 129.745 34.7777C127.579 33.8362 125.247 33.3414 122.888 33.3226C119.665 33.3226 117.99 34.536 117.99 35.8726C117.99 39.3993 131.112 36.3215 131.112 44.2231C131.112 48.6622 127.247 51.3996 121.492 51.3996C118.707 51.3901 115.956 50.7814 113.424 49.6141Z" fill="white"/>
<path id="Vector_7" d="M153.477 46.4082L152.596 50.5021C150.969 51.0943 149.251 51.3965 147.521 51.3948C142.329 51.3948 140.115 48.682 140.115 44.8299V33.5595H134.193V29.8603H140.1V24.1141H144.445V29.8603H152.86V33.5595H144.46V43.4932C144.46 46.206 145.87 47.4391 148.324 47.4391C149.735 47.4243 152.312 47.1234 153.477 46.4082Z" fill="white"/>
</g>
<g id="GDG">
<path id="Vector_8" d="M29.3126 9.00029C28.6881 8.63872 28.1707 8.11602 27.8137 7.48607C27.4454 6.8396 27.2559 6.1055 27.2651 5.36024C27.2565 4.61662 27.446 3.88428 27.8137 3.23934C28.1672 2.60033 28.6849 2.06881 29.3126 1.70046C29.943 1.33674 30.6579 1.14782 31.3845 1.15297C31.95 1.1484 32.5108 1.25565 33.0352 1.46864C33.5224 1.65876 33.9586 1.96113 34.3088 2.35153L33.6328 3.03219C33.3707 2.714 33.034 2.46652 32.6532 2.31207C32.2498 2.14266 31.8166 2.05709 31.3796 2.06052C30.8305 2.06045 30.2907 2.20407 29.8133 2.47731C29.3359 2.75054 28.9371 3.144 28.6562 3.61913C28.36 4.14132 28.2094 4.73434 28.2202 5.33558C28.2088 5.93846 28.3594 6.53324 28.6562 7.05696C28.9376 7.53281 29.3371 7.92673 29.8154 8.20001C30.2938 8.47328 30.8345 8.6165 31.3845 8.61557C31.8074 8.63689 32.2299 8.56595 32.623 8.40761C33.0161 8.24927 33.3706 8.00726 33.6622 7.69816C33.8713 7.47809 34.0374 7.22043 34.152 6.93858C34.2721 6.6226 34.3432 6.28988 34.3627 5.95212H31.4237V5.0791H35.2199C35.2564 5.27099 35.276 5.46575 35.2786 5.66111C35.2791 6.15092 35.1997 6.63747 35.0435 7.10135C34.8914 7.561 34.6367 7.97945 34.299 8.32457C33.9221 8.72353 33.4649 9.03685 32.9581 9.24354C32.4512 9.45024 31.9064 9.54556 31.36 9.52312C30.644 9.53145 29.9382 9.35122 29.3126 9.00029Z" fill="#FEFEFE"/>
<path id="Vector_9" d="M37.3653 9.13357C36.939 8.87963 36.59 8.51285 36.3562 8.07312C36.1142 7.60958 35.9913 7.09241 35.9987 6.56876C35.9892 6.04174 36.1122 5.52087 36.3562 5.05454C36.5899 4.61344 36.9388 4.24504 37.3653 3.98916C37.8102 3.72621 38.319 3.59301 38.8348 3.60444C39.3503 3.59506 39.8585 3.72812 40.3042 3.98916C40.724 4.24577 41.0648 4.61457 41.2888 5.05454C41.5351 5.51663 41.6599 6.03451 41.6513 6.5589C41.6599 7.08328 41.5351 7.60117 41.2888 8.06326C41.0593 8.50609 40.7093 8.87392 40.2798 9.1237C39.8353 9.38838 39.3265 9.5233 38.8103 9.51336C38.303 9.52403 37.8027 9.39254 37.3653 9.13357ZM39.7507 8.40359C40.0434 8.22749 40.2837 7.97535 40.4463 7.6736C40.6261 7.33405 40.7155 6.95343 40.7059 6.56876C40.7148 6.18416 40.6254 5.80371 40.4463 5.46392C40.2837 5.16218 40.0434 4.91004 39.7507 4.73394C39.47 4.56346 39.1479 4.47468 38.8201 4.47746C38.4958 4.47774 38.1776 4.56637 37.8992 4.73394C37.6065 4.91004 37.3663 5.16218 37.2036 5.46392C37.0224 5.80309 36.9313 6.18368 36.9391 6.56876C36.9312 6.95228 37.0224 7.33129 37.2036 7.66867C37.3633 7.97387 37.6041 8.22832 37.8992 8.40359C38.1771 8.57231 38.4956 8.66103 38.8201 8.66007C39.1482 8.66523 39.471 8.57627 39.7507 8.40359Z" fill="#FEFEFE"/>
<path id="Vector_10" d="M43.6645 9.13357C43.2382 8.87963 42.8892 8.51285 42.6554 8.07312C42.4134 7.60958 42.2905 7.09241 42.2979 6.56876C42.2884 6.04174 42.4114 5.52087 42.6554 5.05454C42.8876 4.61239 43.2369 4.24364 43.6645 3.98916C44.1094 3.72621 44.6182 3.59301 45.134 3.60444C45.6494 3.59581 46.1574 3.72882 46.6034 3.98916C47.0231 4.24577 47.364 4.61457 47.588 5.05454C47.8377 5.5191 47.9642 6.04062 47.9554 6.56876C47.9627 7.09241 47.8398 7.60958 47.5978 8.07312C47.365 8.51519 47.0137 8.8826 46.5838 9.13357C46.1394 9.39824 45.6306 9.53316 45.1144 9.52322C44.6045 9.53183 44.1023 9.39688 43.6645 9.13357ZM46.0499 8.40359C46.3426 8.22749 46.5829 7.97535 46.7455 7.6736C46.9253 7.33405 47.0147 6.95343 47.0051 6.56876C47.0145 6.18569 46.9251 5.8067 46.7455 5.46886C46.5844 5.16471 46.3439 4.91061 46.0499 4.73394C45.7682 4.56579 45.4467 4.47719 45.1193 4.47746C44.795 4.47774 44.4768 4.56637 44.1984 4.73394C43.9044 4.91061 43.664 5.16471 43.5028 5.46886C43.3226 5.80646 43.2331 6.18561 43.2432 6.56876C43.2336 6.95343 43.3231 7.33405 43.5028 7.6736C43.6655 7.97535 43.9057 8.22749 44.1984 8.40359C44.4768 8.57116 44.795 8.65978 45.1193 8.66007C45.4474 8.66523 45.7702 8.57627 46.0499 8.40359Z" fill="#FEFEFE"/>
<path id="Vector_11" d="M49.6942 11.4666C49.305 11.1879 49.0081 10.7978 48.8419 10.347L49.7187 9.9869C49.8272 10.3111 50.0346 10.5925 50.3114 10.7909C50.611 10.9974 50.9673 11.1043 51.3303 11.0967C51.5773 11.1144 51.8254 11.0796 52.0582 10.9947C52.2911 10.9097 52.5037 10.7764 52.6822 10.6034C53.0234 10.2067 53.1989 9.69231 53.172 9.16813V8.57625H53.1279C52.9298 8.85656 52.6677 9.08491 52.3638 9.24212C52.0172 9.43305 51.6273 9.52994 51.2323 9.52326C50.7711 9.52271 50.3195 9.39106 49.9294 9.14347C49.5163 8.88446 49.1784 8.52039 48.9497 8.08795C48.7105 7.61825 48.5894 7.09661 48.597 6.5688C48.5842 6.04374 48.7003 5.52362 48.935 5.05457C49.1624 4.62117 49.5006 4.25678 49.9147 3.99906C50.3036 3.74823 50.7557 3.61473 51.2176 3.61434C51.6126 3.60766 52.0025 3.70454 52.3491 3.89548C52.6592 4.06317 52.9234 4.30546 53.1181 4.6008H53.1622V3.7919H54.0635V9.11881C54.0812 9.65927 53.9579 10.195 53.7059 10.6725C53.4829 11.0826 53.1412 11.4146 52.7263 11.6244C52.2916 11.8368 51.8133 11.9432 51.3303 11.9352C50.7484 11.9661 50.1728 11.8013 49.6942 11.4666ZM52.2511 8.41842C52.5327 8.24151 52.7613 7.9909 52.9124 7.69337C53.0859 7.34833 53.1718 6.96532 53.1622 6.57866C53.1712 6.19049 53.0854 5.80603 52.9124 5.45902C52.7647 5.15911 52.5353 4.90765 52.2511 4.73397C51.9793 4.56912 51.6672 4.48373 51.3498 4.48736C51.0334 4.48374 50.7225 4.571 50.4535 4.73891C50.1719 4.91581 49.9433 5.16642 49.7922 5.46396C49.6186 5.809 49.5328 6.19201 49.5424 6.57866C49.5328 6.96532 49.6186 7.34833 49.7922 7.69337C49.9419 7.99192 50.1708 8.24289 50.4535 8.41842C50.7249 8.5828 51.0356 8.66965 51.3523 8.66965C51.669 8.66965 51.9797 8.5828 52.2511 8.41842Z" fill="#FEFEFE"/>
<path id="Vector_12" d="M55.1852 1.33057H56.1305V9.34066H55.1852V1.33057Z" fill="#FEFEFE"/>
<path id="Vector_13" d="M58.3348 9.14342C57.9182 8.88878 57.5793 8.52361 57.3551 8.0879C57.1103 7.62011 56.9873 7.09743 56.9975 6.56875C56.9931 6.05618 57.1071 5.5496 57.3306 5.08905C57.5427 4.64918 57.8716 4.27702 58.2809 4.01381C58.7052 3.7478 59.1967 3.61079 59.6965 3.61922C60.1894 3.60906 60.6757 3.73531 61.1023 3.98421C61.5039 4.22537 61.826 4.58054 62.0281 5.0052C62.2511 5.48133 62.3617 6.00295 62.3513 6.52929C62.361 6.60295 62.361 6.67758 62.3513 6.75124H57.9723C57.9731 7.12413 58.0765 7.48949 58.2711 7.80676C58.4411 8.08114 58.6814 8.30433 58.9666 8.4529C59.2329 8.59236 59.5286 8.66512 59.8287 8.66498C60.167 8.66585 60.4985 8.56926 60.784 8.3866C61.0696 8.20395 61.2973 7.94285 61.4403 7.63413L62.273 8.03858C62.0425 8.47638 61.7055 8.84807 61.2933 9.11876C60.8402 9.39841 60.3159 9.53896 59.7847 9.52321C59.2754 9.53692 58.7728 9.40525 58.3348 9.14342ZM61.3521 5.95221C61.3323 5.71823 61.2675 5.49037 61.1611 5.28141C61.0362 5.04513 60.8499 4.8474 60.6223 4.70926C60.3329 4.54507 60.0039 4.46483 59.672 4.47744C59.2749 4.46991 58.8897 4.61446 58.5944 4.88189C58.2853 5.16121 58.0812 5.53917 58.0164 5.95221H61.3521Z" fill="#FEFEFE"/>
<path id="Vector_14" d="M65.9614 1.33057H68.3713C69.1134 1.30745 69.849 1.47733 70.5069 1.8238C71.0988 2.14868 71.5852 2.63843 71.9078 3.23445C72.241 3.87625 72.4094 4.59179 72.3977 5.31589C72.4107 6.04012 72.2422 6.75597 71.9078 7.39733C71.5847 8.00591 71.0906 8.50513 70.4874 8.83263C69.8303 9.18145 69.0941 9.35147 68.3517 9.32586H65.9418L65.9614 1.33057ZM68.3713 8.43805C68.7792 8.46011 69.1873 8.39895 69.5711 8.25826C69.9549 8.11756 70.3066 7.90022 70.6049 7.61928C70.89 7.3156 71.1101 6.95623 71.2516 6.56341C71.3932 6.1706 71.4532 5.75271 71.4278 5.33562C71.4494 4.92337 71.3876 4.511 71.2461 4.12354C71.1047 3.73607 70.8865 3.38157 70.6049 3.08155C70.3066 2.80061 69.9549 2.58327 69.5711 2.44257C69.1873 2.30187 68.7792 2.24072 68.3713 2.26278H66.9018V8.43805H68.3713Z" fill="#FEFEFE"/>
<path id="Vector_15" d="M74.5333 9.14337C74.1172 8.88814 73.7784 8.52312 73.5536 8.08785C73.3127 7.61879 73.1915 7.09671 73.201 6.5687C73.1965 6.05613 73.3106 5.54954 73.534 5.089C73.7462 4.64913 74.0751 4.27697 74.4843 4.01375C74.9086 3.74775 75.4002 3.61073 75.8999 3.61917C76.3928 3.60951 76.8789 3.73572 77.3057 3.98416C77.7074 4.22532 78.0294 4.58049 78.2315 5.00515C78.4545 5.48128 78.5652 6.0029 78.5548 6.52924C78.5645 6.6029 78.5645 6.67753 78.5548 6.75119H74.1757C74.1765 7.12408 74.2799 7.48944 74.4745 7.80671C74.6445 8.08109 74.8848 8.30428 75.1701 8.45284C75.4363 8.59231 75.732 8.66506 76.0322 8.66493C76.3704 8.6658 76.7019 8.56921 76.9875 8.38655C77.273 8.20389 77.5007 7.9428 77.6437 7.63408L78.4764 8.03853C78.247 8.47709 77.9097 8.84902 77.4967 9.11871C77.0514 9.37964 76.5464 9.51956 76.0311 9.52474C75.5159 9.52993 75.0082 9.40021 74.5578 9.1483L74.5333 9.14337ZM77.5506 5.95216C77.5315 5.71806 77.4666 5.49008 77.3596 5.28136C77.2347 5.04508 77.0485 4.84734 76.8208 4.70921C76.5328 4.5459 76.2057 4.46569 75.8754 4.47739C75.4781 4.46886 75.0926 4.61355 74.7978 4.88184C74.4887 5.16116 74.2846 5.53912 74.2198 5.95216H77.5506Z" fill="#FEFEFE"/>
<path id="Vector_16" d="M78.7703 3.79175H79.794L81.4839 8.23084L83.1983 3.79175H84.1779L81.9198 9.34061H80.9647L78.7703 3.79175Z" fill="#FEFEFE"/>
<path id="Vector_17" d="M85.9462 9.14337C85.5302 8.88814 85.1914 8.52311 84.9666 8.08785C84.7256 7.61879 84.6044 7.09671 84.6139 6.5687C84.6071 6.05587 84.7213 5.54874 84.947 5.089C85.1591 4.64913 85.488 4.27697 85.8973 4.01375C86.3212 3.74697 86.813 3.60989 87.3129 3.61917C87.8057 3.60951 88.2919 3.73572 88.7187 3.98416C89.1203 4.22532 89.4424 4.58049 89.6444 5.00515C89.8675 5.48128 89.9781 6.0029 89.9677 6.52924C89.9798 6.60272 89.9798 6.6777 89.9677 6.75119H85.5887C85.591 7.12455 85.6961 7.48995 85.8924 7.80671C86.0593 8.08185 86.2983 8.3054 86.583 8.45284C86.8497 8.59105 87.1452 8.66373 87.4451 8.66493C87.7835 8.6664 88.1153 8.57006 88.4009 8.38733C88.6866 8.2046 88.9142 7.94317 89.0566 7.63408L89.8893 8.03853C89.6589 8.47633 89.3218 8.84801 88.9097 9.11871C88.4566 9.39835 87.9323 9.53891 87.401 9.52316C86.89 9.53946 86.385 9.40764 85.9462 9.14337ZM88.9587 5.95216C88.9429 5.71807 88.8796 5.48975 88.7725 5.28136C88.6476 5.04508 88.4614 4.84734 88.2337 4.70921C87.9441 4.5455 87.6154 4.46529 87.2835 4.47739C86.8862 4.46886 86.5007 4.61355 86.2059 4.88184C85.8952 5.15987 85.6907 5.53845 85.6279 5.95216H88.9587Z" fill="#FEFEFE"/>
<path id="Vector_18" d="M90.918 1.33057H91.8584V9.34066H90.918V1.33057Z" fill="#FEFEFE"/>
<path id="Vector_19" d="M94.1263 9.13358C93.7094 8.8772 93.3705 8.51035 93.1466 8.07313C92.9031 7.60996 92.7785 7.09281 92.7842 6.56877C92.7779 6.04465 92.9025 5.52735 93.1466 5.06441C93.3702 4.62567 93.709 4.25715 94.1263 3.99903C94.5717 3.73728 95.0801 3.60417 95.5958 3.61431C96.1112 3.60593 96.6191 3.73892 97.0652 3.99903C97.4843 4.25364 97.8264 4.61859 98.0547 5.05455C98.2988 5.51748 98.4234 6.03479 98.4172 6.5589C98.4234 7.08302 98.2988 7.60032 98.0547 8.06326C97.8237 8.50498 97.474 8.87244 97.0456 9.12371C96.5989 9.38345 96.0921 9.52019 95.5762 9.52019C95.0603 9.52019 94.5535 9.38345 94.1067 9.12371L94.1263 9.13358ZM96.5166 8.40359C96.8093 8.22749 97.0496 7.97536 97.2122 7.67361C97.3897 7.33321 97.479 6.95318 97.4718 6.56877C97.479 6.18593 97.3897 5.80749 97.2122 5.46886C97.0525 5.16367 96.8117 4.90921 96.5166 4.73395C96.2343 4.56252 95.9108 4.47212 95.5811 4.47253C95.256 4.47229 94.9373 4.56278 94.6602 4.73395C94.3664 4.90868 94.1259 5.16115 93.9646 5.46393C93.7867 5.80418 93.6974 6.18431 93.705 6.56877C93.6978 6.95161 93.7871 7.33005 93.9646 7.66868C94.1258 7.97282 94.3662 8.22692 94.6602 8.40359C94.9386 8.57117 95.2567 8.65979 95.5811 8.66007C95.9106 8.66456 96.2348 8.57568 96.5166 8.40359Z" fill="#FEFEFE"/>
<path id="Vector_20" d="M99.2694 3.7919H100.171V4.61067H100.215C100.409 4.31393 100.673 4.06999 100.984 3.90041C101.337 3.704 101.736 3.6053 102.14 3.61434C102.603 3.61351 103.057 3.74707 103.448 3.99906C103.862 4.25851 104.2 4.62457 104.427 5.05951C104.671 5.52399 104.795 6.04333 104.785 6.5688C104.793 7.09413 104.67 7.61316 104.427 8.07809C104.2 8.51149 103.862 8.87589 103.448 9.13361C103.059 9.38942 102.604 9.52488 102.14 9.52326C101.735 9.53063 101.335 9.43206 100.979 9.23718C100.665 9.0655 100.402 8.81376 100.215 8.5072H100.171L100.215 9.27664V11.7428H99.2694V3.7919ZM102.899 8.40362C103.183 8.22626 103.414 7.97376 103.565 7.67364C103.737 7.33156 103.823 6.95213 103.815 6.5688C103.823 6.18704 103.737 5.80922 103.565 5.46889C103.414 5.16739 103.183 4.91327 102.899 4.73398C102.626 4.56778 102.312 4.47994 101.993 4.47994C101.673 4.47994 101.36 4.56778 101.087 4.73398C100.804 4.91077 100.574 5.16129 100.421 5.45903C100.248 5.80448 100.162 6.1872 100.171 6.57373C100.163 6.95865 100.248 7.33967 100.421 7.6835C100.571 7.98421 100.802 8.23692 101.087 8.41349C101.359 8.58169 101.673 8.6689 101.993 8.66504C102.314 8.66873 102.629 8.57786 102.899 8.40362Z" fill="#FEFEFE"/>
<path id="Vector_21" d="M106.965 9.14342C106.548 8.88879 106.209 8.52361 105.985 8.0879C105.74 7.62011 105.617 7.09743 105.627 6.56875C105.623 6.05618 105.737 5.5496 105.961 5.08905C106.174 4.65018 106.503 4.27839 106.911 4.01381C107.335 3.7478 107.827 3.61079 108.326 3.61922C108.819 3.60906 109.306 3.73531 109.732 3.98421C110.13 4.22659 110.45 4.57939 110.653 5.00027C110.874 5.4768 110.983 5.99841 110.971 6.52436C110.983 6.59784 110.983 6.67283 110.971 6.74631H106.592C106.595 7.11887 106.699 7.48364 106.891 7.80183C107.061 8.07621 107.301 8.2994 107.587 8.44796C107.853 8.58671 108.149 8.65942 108.449 8.66005C108.787 8.66152 109.119 8.56518 109.405 8.38245C109.69 8.19972 109.918 7.93829 110.06 7.6292L110.893 8.03365C110.663 8.47145 110.326 8.84313 109.913 9.11383C109.46 9.39348 108.936 9.53403 108.405 9.51828C107.899 9.53162 107.4 9.40173 106.965 9.14342ZM109.982 5.95221C109.962 5.71823 109.897 5.49037 109.791 5.28141C109.668 5.04348 109.482 4.84517 109.252 4.70926C108.963 4.54434 108.634 4.46404 108.302 4.47744C107.905 4.46991 107.52 4.61446 107.224 4.88189C106.915 5.16121 106.711 5.53917 106.646 5.95221H109.982Z" fill="#FEFEFE"/>
<path id="Vector_22" d="M111.936 3.79187H112.838V4.69942H112.882C112.999 4.3762 113.224 4.10412 113.519 3.92998C113.807 3.72879 114.148 3.61886 114.498 3.61431C114.717 3.61267 114.935 3.65111 115.14 3.72775V4.74381C114.895 4.61684 114.622 4.55407 114.346 4.56131C114.087 4.56016 113.833 4.64125 113.621 4.79313C113.393 4.94736 113.207 5.15791 113.083 5.40474C112.948 5.65976 112.879 5.94462 112.882 6.23337V9.32594H111.936V3.79187Z" fill="#FEFEFE"/>
<path id="Vector_23" d="M119.984 9.00039C119.358 8.63134 118.842 8.09988 118.49 7.4615C118.122 6.81503 117.932 6.08093 117.942 5.33567C117.934 4.59056 118.123 3.85677 118.49 3.20984C118.851 2.57818 119.373 2.0547 120.001 1.69322C120.63 1.33174 121.342 1.1453 122.066 1.15306C122.63 1.14888 123.189 1.25613 123.712 1.46873C124.2 1.6577 124.636 1.96025 124.985 2.35162L124.3 3.03228C124.04 2.71109 123.703 2.463 123.32 2.31216C122.866 2.12318 122.375 2.03883 121.885 2.06529C121.394 2.09174 120.915 2.22833 120.484 2.46506C120 2.73842 119.598 3.13686 119.318 3.61923C119.022 4.14141 118.871 4.73443 118.882 5.33567C118.87 5.93927 119.022 6.53467 119.323 7.05705C119.603 7.5339 120.002 7.92863 120.481 8.20205C120.96 8.47547 121.501 8.61806 122.051 8.61567C122.51 8.62996 122.966 8.54415 123.388 8.36412C123.739 8.20043 124.057 7.97493 124.329 7.69825C124.53 7.47635 124.687 7.21876 124.794 6.93868C124.914 6.6227 124.985 6.28997 125.005 5.95221H122.066V5.07919H125.887C125.921 5.27143 125.94 5.46599 125.945 5.66121C125.946 6.15101 125.866 6.63756 125.71 7.10144C125.558 7.5611 125.303 7.97954 124.966 8.32466C124.589 8.72362 124.132 9.03694 123.625 9.24364C123.118 9.45034 122.573 9.54565 122.027 9.52321C121.312 9.53068 120.608 9.35048 119.984 9.00039Z" fill="#FEFEFE"/>
<path id="Vector_24" d="M127.038 3.7919H127.939V4.69944H127.983C128.1 4.37622 128.325 4.10415 128.62 3.93C128.907 3.72799 129.249 3.61798 129.599 3.61433C129.82 3.61232 130.039 3.65076 130.246 3.72778V4.74383C129.999 4.61605 129.725 4.55326 129.448 4.56134C129.186 4.5608 128.931 4.64179 128.718 4.79316C128.49 4.94868 128.305 5.1589 128.179 5.40477C128.046 5.66016 127.979 5.94504 127.983 6.2334V9.32596H127.038V3.7919Z" fill="#FEFEFE"/>
<path id="Vector_25" d="M131.715 9.13353C131.289 8.8796 130.94 8.51282 130.706 8.07309C130.464 7.60955 130.341 7.09237 130.349 6.56873C130.346 6.03883 130.479 5.51721 130.736 5.0545C130.961 4.61939 131.3 4.25441 131.715 3.99899C132.16 3.74661 132.662 3.61401 133.173 3.61401C133.683 3.61401 134.185 3.74661 134.63 3.99899C135.054 4.25189 135.401 4.61693 135.634 5.0545C135.876 5.51789 135.999 6.03517 135.992 6.55886C135.999 7.08256 135.876 7.59983 135.634 8.06322C135.412 8.50437 135.073 8.87487 134.654 9.13353C134.211 9.38872 133.708 9.52294 133.197 9.52294C132.686 9.52294 132.184 9.38872 131.74 9.13353H131.715ZM134.101 8.40355C134.394 8.22745 134.634 7.97531 134.796 7.67357C134.976 7.33402 135.066 6.9534 135.056 6.56873C135.066 6.18406 134.976 5.80344 134.796 5.46389C134.634 5.16214 134.394 4.91 134.101 4.7339C133.821 4.56122 133.498 4.47226 133.17 4.47742C132.844 4.47706 132.524 4.5657 132.244 4.7339C131.954 4.91222 131.714 5.16382 131.549 5.46389C131.371 5.80429 131.282 6.18431 131.289 6.56873C131.282 6.95162 131.371 7.33016 131.549 7.66864C131.71 7.97278 131.951 8.22688 132.244 8.40355C132.523 8.57112 132.841 8.65975 133.165 8.66003C133.494 8.66095 133.818 8.57233 134.101 8.40355Z" fill="#FEFEFE"/>
<path id="Vector_26" d="M137.388 8.92629C137.012 8.46539 136.823 7.87886 136.859 7.28383V3.79175H137.804V7.126C137.804 8.15192 138.26 8.65995 139.171 8.65995C139.464 8.66531 139.751 8.57536 139.989 8.40347C140.224 8.23065 140.411 7.99962 140.532 7.73267C140.661 7.45973 140.728 7.16163 140.728 6.85965V3.79175H141.659V9.34061H140.772V8.50705H140.728C140.545 8.80421 140.291 9.05018 139.989 9.22223C139.667 9.41335 139.3 9.51386 138.926 9.51324C138.642 9.5335 138.358 9.4915 138.093 9.39015C137.827 9.28881 137.586 9.13053 137.388 8.92629Z" fill="#FEFEFE"/>
<path id="Vector_27" d="M142.903 3.7919H143.799V4.61067H143.848C144.041 4.31414 144.304 4.07015 144.613 3.90041C144.966 3.704 145.365 3.6053 145.769 3.61434C146.234 3.6145 146.689 3.74794 147.081 3.99906C147.486 4.26051 147.815 4.62451 148.036 5.05458C148.278 5.51995 148.401 6.03867 148.394 6.56387C148.4 7.08895 148.277 7.60742 148.036 8.07316C147.816 8.50349 147.486 8.86758 147.081 9.12867C146.69 9.38383 146.234 9.51919 145.769 9.51833C145.364 9.52436 144.964 9.42587 144.608 9.23225C144.296 9.0618 144.034 8.81175 143.848 8.5072H143.804L143.848 9.27664V11.7428H142.903V3.7919ZM146.528 8.40362C146.812 8.22626 147.042 7.97376 147.194 7.67364C147.366 7.33156 147.452 6.95213 147.444 6.5688C147.452 6.18704 147.366 5.80922 147.194 5.46889C147.043 5.16739 146.812 4.91327 146.528 4.73398C146.255 4.56768 145.943 4.47976 145.624 4.47976C145.305 4.47976 144.993 4.56768 144.72 4.73398C144.436 4.9094 144.206 5.16028 144.054 5.45903C143.882 5.80448 143.796 6.1872 143.804 6.57373C143.796 6.95865 143.882 7.33967 144.054 7.6835C144.203 7.98527 144.434 8.23836 144.72 8.41349C144.991 8.58205 145.304 8.66932 145.622 8.66504C145.943 8.66931 146.258 8.5784 146.528 8.40362Z" fill="#FEFEFE"/>
<path id="Vector_28" d="M149.746 9.07436C149.357 8.80012 149.059 8.41545 148.889 7.96952L149.721 7.5996C149.85 7.92345 150.07 8.20271 150.353 8.40357C150.611 8.58732 150.919 8.68559 151.235 8.68471C151.546 8.69711 151.853 8.61458 152.117 8.44796C152.22 8.39197 152.307 8.30967 152.369 8.20927C152.431 8.10888 152.465 7.9939 152.469 7.87581C152.47 7.77223 152.447 7.66987 152.401 7.57723C152.355 7.48458 152.288 7.40432 152.205 7.34312C151.937 7.15822 151.633 7.03219 151.313 6.9732L150.559 6.78084C150.167 6.69675 149.801 6.51534 149.496 6.25308C149.354 6.13226 149.241 5.98094 149.164 5.81023C149.088 5.63952 149.051 5.45376 149.055 5.26661C149.044 4.94015 149.148 4.62021 149.349 4.364C149.554 4.11087 149.823 3.91828 150.128 3.80665C150.468 3.67453 150.831 3.60924 151.196 3.61429C151.648 3.6082 152.094 3.72218 152.489 3.94475C152.864 4.15033 153.158 4.4794 153.322 4.87696L152.484 5.23702C152.381 4.98115 152.189 4.77114 151.945 4.64514C151.697 4.5157 151.421 4.44964 151.142 4.45278C150.866 4.448 150.594 4.5215 150.358 4.66487C150.255 4.71513 150.168 4.79268 150.106 4.88917C150.044 4.98566 150.009 5.09741 150.005 5.21236C150.002 5.30216 150.022 5.39132 150.062 5.47152C150.102 5.55172 150.162 5.62036 150.236 5.67106C150.457 5.8162 150.703 5.9198 150.961 5.97687L151.784 6.17416C152.243 6.27047 152.668 6.49035 153.013 6.81043C153.142 6.93969 153.244 7.09351 153.313 7.2629C153.382 7.43229 153.416 7.61383 153.415 7.79689C153.417 8.10979 153.321 8.41543 153.14 8.66991C152.939 8.93983 152.67 9.15094 152.362 9.28152C152.005 9.43839 151.619 9.51579 151.23 9.50841C150.702 9.52882 150.181 9.37655 149.746 9.07436Z" fill="#FEFEFE"/>
<path id="Vector_29" d="M9.19543 7.48605L3.05302 3.91012C2.65285 3.70372 2.18924 3.65998 1.75796 3.78794C1.32669 3.91589 0.960695 4.20577 0.735598 4.59768C0.510501 4.98959 0.443498 5.45359 0.548432 5.89383C0.653365 6.33406 0.922217 6.71689 1.29945 6.96322L7.44676 10.5392C7.84883 10.7727 8.32655 10.8358 8.77483 10.7146C9.2231 10.5934 9.60522 10.2979 9.8371 9.89302C10.069 9.48816 10.1317 9.00711 10.0113 8.55572C9.89099 8.10432 9.5975 7.71955 9.19543 7.48605Z" fill="#FEFEFE"/>
<path id="Vector_30" d="M21.4509 3.91019L15.3085 0.339195C14.9083 0.132796 14.4447 0.0890574 14.0135 0.217015C13.5822 0.344972 13.2162 0.634849 12.9911 1.02676C12.766 1.41867 12.699 1.88267 12.8039 2.3229C12.9089 2.76313 13.1777 3.14596 13.5549 3.3923L19.7022 6.9633C19.9013 7.07892 20.1211 7.15392 20.349 7.18402C20.5768 7.21412 20.8084 7.19873 21.0303 7.13874C21.2523 7.07874 21.4603 6.9753 21.6426 6.83434C21.8249 6.69337 21.9778 6.51764 22.0926 6.31717C22.2074 6.1167 22.2819 5.89542 22.3118 5.66596C22.3417 5.43651 22.3264 5.20337 22.2668 4.97986C22.2072 4.75635 22.1045 4.54685 21.9645 4.36332C21.8245 4.17978 21.65 4.02581 21.4509 3.91019Z" fill="#FEFEFE"/>
<path id="Vector_31" d="M19.4573 7.38758L16.6065 5.72046L13.5696 7.48623C13.1924 7.73257 12.9235 8.1154 12.8186 8.55563C12.7136 8.99586 12.7806 9.45986 13.0057 9.85177C13.2308 10.2437 13.5968 10.5336 14.0281 10.6615C14.4594 10.7895 14.923 10.7457 15.3232 10.5393L20.2459 7.66873C19.9682 7.6243 19.7009 7.52901 19.4573 7.38758Z" fill="#FEFEFE"/>
<path id="Vector_32" d="M3.29312 3.48603L6.1635 5.15316L9.19552 3.39232C9.59759 3.15882 9.89107 2.77404 10.0114 2.32265C10.1317 1.87125 10.0691 1.39021 9.83719 0.985345C9.6053 0.580477 9.22319 0.284951 8.77491 0.163777C8.32663 0.0426036 7.84891 0.105709 7.44684 0.339211L2.5094 3.20982C2.78492 3.25403 3.05035 3.34758 3.29312 3.48603Z" fill="#FEFEFE"/>
</g>
<g id="Medea 23&#226;&#128;&#157;">
<path id="Vector_33" d="M168.899 72.2879L169.821 70.9823C169.578 70.9359 169.369 70.8257 169.195 70.6516C169.032 70.4775 168.951 70.257 168.951 69.9901C168.951 69.6768 169.056 69.4157 169.264 69.2068C169.485 68.9863 169.752 68.8761 170.065 68.8761C170.367 68.8761 170.622 68.9863 170.831 69.2068C171.052 69.4157 171.162 69.6768 171.162 69.9901C171.162 70.1758 171.121 70.3615 171.04 70.5472C170.959 70.7328 170.843 70.9359 170.692 71.1564L169.613 72.7404L168.899 72.2879ZM171.841 72.2879L172.763 70.9823C172.52 70.9359 172.311 70.8257 172.137 70.6516C171.974 70.4775 171.893 70.257 171.893 69.9901C171.893 69.6768 171.997 69.4157 172.206 69.2068C172.427 68.9863 172.694 68.8761 173.007 68.8761C173.309 68.8761 173.564 68.9863 173.773 69.2068C173.993 69.4157 174.104 69.6768 174.104 69.9901C174.104 70.1758 174.063 70.3615 173.982 70.5472C173.901 70.7328 173.784 70.9359 173.634 71.1564L172.554 72.7404L171.841 72.2879Z" fill="#FDB705"/>
<path id="Vector_34" d="M163.326 81.8964C162.827 81.8964 162.316 81.792 161.794 81.5831C161.272 81.3742 160.796 81.0493 160.366 80.6083C159.949 80.1558 159.647 79.5929 159.461 78.9199L160.802 78.3628C160.987 79.0359 161.301 79.5581 161.741 79.9295C162.194 80.3008 162.722 80.4865 163.326 80.4865C163.766 80.4865 164.178 80.3936 164.561 80.208C164.944 80.0107 165.246 79.7438 165.467 79.4073C165.699 79.0591 165.815 78.6762 165.815 78.2584C165.815 77.8522 165.699 77.4809 165.467 77.1444C165.246 76.8078 164.939 76.5467 164.544 76.3611C164.161 76.1638 163.737 76.0651 163.273 76.0651H162.246V74.69H163.169C163.807 74.69 164.341 74.5101 164.77 74.1504C165.2 73.779 165.414 73.2916 165.414 72.6882C165.414 72.1312 165.205 71.6844 164.788 71.3479C164.37 71.0113 163.854 70.8431 163.238 70.8431C162.635 70.8431 162.159 70.9997 161.811 71.3131C161.475 71.6264 161.231 72.0093 161.08 72.4619L159.722 71.8875C159.931 71.2608 160.332 70.698 160.923 70.199C161.527 69.6884 162.299 69.4331 163.238 69.4331C163.935 69.4331 164.561 69.5724 165.118 69.8509C165.675 70.1294 166.111 70.5181 166.424 71.0171C166.749 71.5161 166.911 72.0732 166.911 72.6882C166.911 73.3032 166.755 73.8254 166.441 74.2548C166.128 74.6842 165.739 75.0207 165.275 75.2644V75.334C165.867 75.5777 166.354 75.9549 166.737 76.4655C167.12 76.9645 167.312 77.5563 167.312 78.241C167.312 78.9373 167.132 79.5639 166.772 80.1209C166.424 80.678 165.942 81.1131 165.327 81.4265C164.724 81.7398 164.057 81.8964 163.326 81.8964Z" fill="#FDB705"/>
<path id="Vector_35" d="M150.403 80.1383C150.763 79.7786 151.476 79.0591 152.544 77.9799C153.612 76.8891 154.354 76.1174 154.772 75.6648C155.364 75.0381 155.764 74.5449 155.973 74.1852C156.182 73.8138 156.286 73.3729 156.286 72.8623C156.286 72.5141 156.199 72.1892 156.025 71.8875C155.851 71.5742 155.59 71.3247 155.242 71.139C154.905 70.9417 154.499 70.8431 154.023 70.8431C153.397 70.8431 152.892 71.0287 152.509 71.4001C152.126 71.7598 151.877 72.1544 151.761 72.5838L150.42 72.0441C150.536 71.6728 150.745 71.2898 151.047 70.8953C151.349 70.4891 151.755 70.1468 152.265 69.8683C152.776 69.5782 153.374 69.4331 154.058 69.4331C154.789 69.4331 155.439 69.5898 156.008 69.9031C156.576 70.2164 157.017 70.6342 157.331 71.1564C157.644 71.6786 157.801 72.2414 157.801 72.8449C157.801 74.0749 157.157 75.334 155.869 76.6222L152.318 80.208H157.94V81.6179H150.403V80.1383Z" fill="#FDB705"/>
<path id="Vector_36" d="M140.378 81.8965C139.752 81.8965 139.183 81.7747 138.673 81.531C138.174 81.2757 137.779 80.9275 137.489 80.4866C137.21 80.034 137.071 79.5292 137.071 78.9722C137.071 78.0554 137.414 77.3417 138.098 76.8311C138.794 76.3205 139.682 76.0652 140.761 76.0652C141.295 76.0652 141.777 76.1232 142.206 76.2393C142.636 76.3553 142.978 76.483 143.233 76.6222V76.1697C143.233 75.7519 143.123 75.3805 142.902 75.0556C142.694 74.7191 142.409 74.4638 142.05 74.2897C141.69 74.104 141.301 74.0112 140.883 74.0112C139.897 74.0112 139.143 74.4116 138.62 75.2123L137.384 74.3942C137.744 73.8603 138.22 73.4484 138.812 73.1583C139.404 72.8565 140.071 72.7057 140.814 72.7057C141.997 72.7057 142.931 73.0248 143.616 73.6631C144.301 74.3013 144.643 75.1601 144.643 76.2393V81.618H143.233V80.3473H143.164C142.885 80.7883 142.508 81.1596 142.032 81.4614C141.556 81.7515 141.005 81.8965 140.378 81.8965ZM140.5 80.591C140.965 80.591 141.405 80.4692 141.823 80.2255C142.241 79.9818 142.578 79.651 142.833 79.2333C143.1 78.8155 143.233 78.3629 143.233 77.8755C142.583 77.4578 141.835 77.2489 140.988 77.2489C140.257 77.2489 139.671 77.4172 139.23 77.7537C138.8 78.0786 138.586 78.4964 138.586 79.007C138.586 79.4712 138.777 79.8541 139.16 80.1558C139.543 80.446 139.99 80.591 140.5 80.591Z" fill="#FDB705"/>
<path id="Vector_37" d="M131.768 81.8965C130.932 81.8965 130.184 81.6993 129.522 81.3047C128.872 80.9101 128.362 80.3647 127.99 79.6684C127.619 78.9722 127.433 78.1831 127.433 77.3011C127.433 76.4656 127.607 75.6997 127.955 75.0034C128.304 74.2955 128.797 73.7385 129.435 73.3323C130.085 72.9146 130.828 72.7057 131.663 72.7057C132.499 72.7057 133.23 72.8972 133.856 73.2801C134.495 73.6515 134.982 74.1795 135.319 74.8641C135.655 75.5488 135.823 76.3379 135.823 77.2315C135.823 77.3939 135.812 77.51 135.789 77.5796H128.93C128.953 78.2295 129.11 78.7807 129.4 79.2333C129.69 79.6742 130.05 80.005 130.479 80.2255C130.92 80.446 131.373 80.5562 131.837 80.5562C132.928 80.5562 133.769 80.0224 134.361 78.9548L135.667 79.5814C135.295 80.2777 134.779 80.8405 134.117 81.2699C133.468 81.6876 132.684 81.8965 131.768 81.8965ZM134.257 76.3437C134.234 75.9956 134.135 75.6475 133.961 75.2993C133.787 74.9512 133.502 74.6553 133.108 74.4116C132.725 74.1679 132.232 74.046 131.628 74.046C130.978 74.046 130.416 74.2549 129.94 74.6727C129.464 75.0904 129.162 75.6475 129.035 76.3437H134.257Z" fill="#FDB705"/>
<path id="Vector_38" d="M121.359 81.8964C120.616 81.8964 119.932 81.6991 119.305 81.3046C118.678 80.91 118.179 80.3646 117.808 79.6683C117.437 78.9604 117.251 78.1713 117.251 77.301C117.251 76.4306 117.437 75.6473 117.808 74.951C118.179 74.2432 118.678 73.6919 119.305 73.2974C119.932 72.9028 120.616 72.7055 121.359 72.7055C122.032 72.7055 122.635 72.8564 123.169 73.1581C123.703 73.4482 124.103 73.8138 124.37 74.2548H124.44L124.37 73.0711V69.1545H125.832V81.6179H124.44V80.3298H124.37C124.103 80.7823 123.703 81.1595 123.169 81.4612C122.635 81.7513 122.032 81.8964 121.359 81.8964ZM121.585 80.5561C122.096 80.5561 122.566 80.4284 122.995 80.1731C123.436 79.9062 123.784 79.5232 124.04 79.0243C124.306 78.5253 124.44 77.9508 124.44 77.301C124.44 76.6395 124.306 76.0651 124.04 75.5777C123.784 75.0787 123.436 74.7015 122.995 74.4462C122.566 74.1793 122.096 74.0459 121.585 74.0459C121.075 74.0459 120.599 74.1793 120.158 74.4462C119.728 74.7131 119.38 75.0961 119.113 75.5951C118.858 76.0825 118.73 76.6511 118.73 77.301C118.73 77.9508 118.858 78.5253 119.113 79.0243C119.38 79.5116 119.728 79.8888 120.158 80.1557C120.599 80.4226 121.075 80.5561 121.585 80.5561Z" fill="#FDB705"/>
<path id="Vector_39" d="M111.93 81.8965C111.094 81.8965 110.346 81.6993 109.684 81.3047C109.034 80.9101 108.524 80.3647 108.152 79.6684C107.781 78.9722 107.595 78.1831 107.595 77.3011C107.595 76.4656 107.77 75.6997 108.118 75.0034C108.466 74.2955 108.959 73.7385 109.597 73.3323C110.247 72.9146 110.99 72.7057 111.825 72.7057C112.661 72.7057 113.392 72.8972 114.019 73.2801C114.657 73.6515 115.144 74.1795 115.481 74.8641C115.817 75.5488 115.986 76.3379 115.986 77.2315C115.986 77.3939 115.974 77.51 115.951 77.5796H109.092C109.116 78.2295 109.272 78.7807 109.562 79.2333C109.853 79.6742 110.212 80.005 110.642 80.2255C111.083 80.446 111.535 80.5562 111.999 80.5562C113.09 80.5562 113.932 80.0224 114.523 78.9548L115.829 79.5814C115.458 80.2777 114.941 80.8405 114.28 81.2699C113.63 81.6876 112.847 81.8965 111.93 81.8965ZM114.419 76.3437C114.396 75.9956 114.297 75.6475 114.123 75.2993C113.949 74.9512 113.665 74.6553 113.27 74.4116C112.887 74.1679 112.394 74.046 111.791 74.046C111.141 74.046 110.578 74.2549 110.102 74.6727C109.626 75.0904 109.325 75.6475 109.197 76.3437H114.419Z" fill="#FDB705"/>
<path id="Vector_40" d="M93.3177 69.1545H95.4588L99.445 79.3724H99.5146L103.483 69.1545H105.624V81.6179H104.145V73.6977L104.214 71.3304H104.145L100.089 81.6179H98.8531L94.7973 71.3304H94.7277L94.7973 73.6977V81.6179H93.3177V69.1545Z" fill="#FDB705"/>
</g>
</g>
</svg>
