<svg width="243" height="40" viewBox="0 0 243 40" fill="none" xmlns="http://www.w3.org/2000/svg">
<g id="Medea 23&#226;&#128;&#157;">
<path id="Vector" d="M227.34 10.5758L230.106 6.66259C229.375 6.52345 228.749 6.193 228.227 5.67124C227.74 5.14948 227.497 4.48859 227.497 3.68856C227.497 2.74939 227.81 1.96676 228.436 1.34065C229.097 0.679751 229.897 0.349304 230.836 0.349304C231.74 0.349304 232.506 0.679751 233.132 1.34065C233.793 1.96676 234.123 2.74939 234.123 3.68856C234.123 4.2451 234.001 4.80165 233.758 5.35819C233.514 5.91473 233.167 6.52345 232.714 7.18434L229.479 11.9323L227.34 10.5758ZM236.158 10.5758L238.923 6.66259C238.193 6.52345 237.567 6.193 237.045 5.67124C236.558 5.14948 236.314 4.48859 236.314 3.68856C236.314 2.74939 236.628 1.96676 237.254 1.34065C237.915 0.679751 238.715 0.349304 239.654 0.349304C240.558 0.349304 241.323 0.679751 241.949 1.34065C242.61 1.96676 242.941 2.74939 242.941 3.68856C242.941 4.2451 242.819 4.80165 242.576 5.35819C242.332 5.91473 241.984 6.52345 241.532 7.18434L238.297 11.9323L236.158 10.5758Z" fill="#F9AB00"/>
<path id="Vector_2" d="M210.635 39.377C209.139 39.377 207.609 39.064 206.043 38.4379C204.478 37.8118 203.052 36.8378 201.765 35.516C200.513 34.1594 199.608 32.4724 199.052 30.455L203.069 28.7853C203.626 30.8028 204.565 32.3681 205.887 33.4812C207.243 34.5942 208.826 35.1508 210.635 35.1508C211.957 35.1508 213.191 34.8725 214.339 34.316C215.487 33.7246 216.392 32.9246 217.052 31.9159C217.748 30.8724 218.096 29.7245 218.096 28.4723C218.096 27.2548 217.748 26.1417 217.052 25.133C216.392 24.1243 215.47 23.3416 214.287 22.7851C213.139 22.1938 211.87 21.8981 210.478 21.8981H207.4V17.7762H210.165C212.078 17.7762 213.678 17.2371 214.965 16.1588C216.252 15.0457 216.896 13.5848 216.896 11.776C216.896 10.1064 216.27 8.76718 215.018 7.75845C213.765 6.74972 212.217 6.24535 210.374 6.24535C208.565 6.24535 207.139 6.71493 206.096 7.6541C205.087 8.59327 204.356 9.74113 203.904 11.0977L199.834 9.3759C200.461 7.49757 201.661 5.81055 203.435 4.31484C205.243 2.78435 207.556 2.0191 210.374 2.0191C212.461 2.0191 214.339 2.43651 216.009 3.27132C217.679 4.10614 218.983 5.2714 219.922 6.76711C220.896 8.26282 221.383 9.93245 221.383 11.776C221.383 13.6195 220.913 15.1848 219.974 16.4718C219.035 17.7588 217.87 18.7676 216.479 19.498V19.7067C218.252 20.4372 219.713 21.5677 220.861 23.0982C222.009 24.5939 222.583 26.3678 222.583 28.4201C222.583 30.5071 222.044 32.3855 220.966 34.0551C219.922 35.7247 218.479 37.0291 216.635 37.9683C214.826 38.9074 212.826 39.377 210.635 39.377Z" fill="#F9AB00"/>
<path id="Vector_3" d="M171.9 34.1073C172.978 33.029 175.118 30.8724 178.318 27.6375C181.518 24.3678 183.744 22.0546 184.996 20.6981C186.77 18.8197 187.97 17.3414 188.596 16.2631C189.222 15.15 189.535 13.8282 189.535 12.2978C189.535 11.2542 189.275 10.2803 188.753 9.3759C188.231 8.43674 187.448 7.68888 186.405 7.13234C185.396 6.54101 184.179 6.24535 182.753 6.24535C180.874 6.24535 179.361 6.80189 178.213 7.91498C177.065 8.99328 176.318 10.1759 175.97 11.4629L171.952 9.84549C172.3 8.7324 172.926 7.58453 173.831 6.40188C174.735 5.18444 175.952 4.15832 177.483 3.3235C179.013 2.4539 180.805 2.0191 182.857 2.0191C185.048 2.0191 186.996 2.48869 188.701 3.42785C190.405 4.36702 191.727 5.61924 192.666 7.18452C193.605 8.74979 194.075 10.4368 194.075 12.2456C194.075 15.9327 192.144 19.7067 188.283 23.5677L177.639 34.316H194.492V38.5422H171.9V34.1073Z" fill="#F9AB00"/>
<path id="Vector_4" d="M141.853 39.3772C139.974 39.3772 138.27 39.012 136.74 38.2815C135.244 37.5163 134.061 36.4728 133.192 35.151C132.357 33.7944 131.939 32.2813 131.939 30.6117C131.939 27.8638 132.965 25.7245 135.018 24.194C137.105 22.6636 139.766 21.8983 143.001 21.8983C144.601 21.8983 146.044 22.0722 147.331 22.4201C148.618 22.7679 149.644 23.1505 150.41 23.5679V22.2114C150.41 20.9591 150.079 19.8461 149.418 18.8721C148.792 17.8634 147.94 17.0981 146.862 16.5764C145.783 16.0198 144.618 15.7416 143.366 15.7416C140.409 15.7416 138.148 16.9416 136.583 19.3417L132.878 16.8894C133.957 15.2894 135.383 14.0545 137.157 13.1849C138.931 12.2806 140.931 11.8284 143.157 11.8284C146.705 11.8284 149.505 12.7849 151.557 14.698C153.61 16.6112 154.636 19.1852 154.636 22.4201V38.5424H150.41V34.7336H150.201C149.366 36.0554 148.236 37.1684 146.809 38.0728C145.383 38.9424 143.731 39.3772 141.853 39.3772ZM142.218 35.464C143.609 35.464 144.931 35.0988 146.183 34.3683C147.436 33.6379 148.444 32.6465 149.21 31.3943C150.01 30.1421 150.41 28.7855 150.41 27.3246C148.462 26.0724 146.218 25.4463 143.679 25.4463C141.488 25.4463 139.731 25.9506 138.409 26.9594C137.122 27.9333 136.479 29.1855 136.479 30.716C136.479 32.1074 137.053 33.2553 138.2 34.1596C139.348 35.0292 140.687 35.464 142.218 35.464Z" fill="#F9AB00"/>
<path id="Vector_5" d="M116.042 39.3772C113.538 39.3772 111.294 38.7859 109.311 37.6032C107.363 36.4206 105.833 34.7857 104.72 32.6987C103.607 30.6117 103.05 28.2464 103.05 25.6028C103.05 23.0984 103.572 20.8026 104.615 18.7156C105.659 16.5938 107.137 14.9241 109.05 13.7067C110.998 12.4545 113.224 11.8284 115.729 11.8284C118.233 11.8284 120.425 12.4023 122.303 13.5502C124.216 14.6633 125.677 16.2459 126.686 18.2982C127.695 20.3504 128.199 22.7157 128.199 25.3941C128.199 25.8811 128.164 26.2289 128.095 26.4376H107.537C107.607 28.3855 108.076 30.0377 108.946 31.3943C109.816 32.7161 110.894 33.7074 112.181 34.3683C113.503 35.0292 114.859 35.3597 116.251 35.3597C119.52 35.3597 122.042 33.7596 123.816 30.5595L127.729 32.4378C126.616 34.5249 125.068 36.2119 123.086 37.4989C121.138 38.7511 118.79 39.3772 116.042 39.3772ZM123.503 22.7331C123.434 21.6896 123.138 20.6461 122.616 19.6026C122.094 18.5591 121.242 17.6721 120.059 16.9416C118.912 16.2111 117.433 15.8459 115.625 15.8459C113.677 15.8459 111.99 16.472 110.563 17.7242C109.137 18.9765 108.233 20.6461 107.85 22.7331H123.503Z" fill="#F9AB00"/>
<path id="Vector_6" d="M84.8428 39.3766C82.6166 39.3766 80.5644 38.7853 78.686 37.6027C76.8077 36.42 75.312 34.7852 74.1989 32.6981C73.0858 30.5763 72.5293 28.211 72.5293 25.6022C72.5293 22.9934 73.0858 20.6455 74.1989 18.5585C75.312 16.4366 76.8077 14.7844 78.686 13.6018C80.5644 12.4191 82.6166 11.8278 84.8428 11.8278C86.8603 11.8278 88.669 12.28 90.2691 13.1843C91.8692 14.0539 93.0692 15.1496 93.8692 16.4714H94.0779L93.8692 12.9235V1.1839H98.252V38.5418H94.0779V34.6808H93.8692C93.0692 36.0374 91.8692 37.1679 90.2691 38.0722C88.669 38.9418 86.8603 39.3766 84.8428 39.3766ZM85.5211 35.3591C87.0516 35.3591 88.4603 34.9765 89.7473 34.2112C91.0691 33.4112 92.1126 32.2633 92.8779 30.7676C93.6779 29.2719 94.0779 27.5501 94.0779 25.6022C94.0779 23.6195 93.6779 21.8977 92.8779 20.4368C92.1126 18.9411 91.0691 17.8106 89.7473 17.0454C88.4603 16.2453 87.0516 15.8453 85.5211 15.8453C83.9906 15.8453 82.5645 16.2453 81.2427 17.0454C79.9557 17.8454 78.9121 18.9933 78.1121 20.489C77.3469 21.9499 76.9642 23.6543 76.9642 25.6022C76.9642 27.5501 77.3469 29.2719 78.1121 30.7676C78.9121 32.2285 79.9557 33.359 81.2427 34.159C82.5645 34.9591 83.9906 35.3591 85.5211 35.3591Z" fill="#F9AB00"/>
<path id="Vector_7" d="M56.5798 39.3772C54.0754 39.3772 51.8318 38.7859 49.8491 37.6032C47.9012 36.4206 46.3707 34.7857 45.2576 32.6987C44.1446 30.6117 43.588 28.2464 43.588 25.6028C43.588 23.0984 44.1098 20.8026 45.1533 18.7156C46.1968 16.5938 47.6751 14.9241 49.5882 13.7067C51.5361 12.4545 53.7623 11.8284 56.2667 11.8284C58.7712 11.8284 60.9626 12.4023 62.8409 13.5502C64.754 14.6633 66.2149 16.2459 67.2237 18.2982C68.2324 20.3504 68.7368 22.7157 68.7368 25.3941C68.7368 25.8811 68.702 26.2289 68.6324 26.4376H48.0751C48.1447 28.3855 48.6143 30.0377 49.4839 31.3943C50.3535 32.7161 51.4318 33.7074 52.7188 34.3683C54.0406 35.0292 55.3972 35.3597 56.7885 35.3597C60.0582 35.3597 62.58 33.7596 64.354 30.5595L68.2672 32.4378C67.1541 34.5249 65.6062 36.2119 63.6235 37.4989C61.6756 38.7511 59.3277 39.3772 56.5798 39.3772ZM64.041 22.7331C63.9714 21.6896 63.6757 20.6461 63.154 19.6026C62.6322 18.5591 61.78 17.6721 60.5973 16.9416C59.4495 16.2111 57.9712 15.8459 56.1624 15.8459C54.2145 15.8459 52.5275 16.472 51.1013 17.7242C49.6752 18.9765 48.7708 20.6461 48.3882 22.7331H64.041Z" fill="#F9AB00"/>
<path id="Vector_8" d="M0.791504 1.1839H7.20914L19.1574 31.8111H19.3661L31.2622 1.1839H37.6798V38.5418H33.2449V14.8018L33.4536 7.70588H33.2449L21.0879 38.5418H17.3834L5.22645 7.70588H5.01775L5.22645 14.8018V38.5418H0.791504V1.1839Z" fill="#F9AB00"/>
</g>
</svg>
