<svg width="69" height="67" viewBox="0 0 69 67" fill="none" xmlns="http://www.w3.org/2000/svg">
<path id="Vector" d="M34.4611 67C12.1939 65.9033 -0.9407 51.4159 0.0525959 30.5987C0.910881 12.6962 17.0929 -1.14665 36.0619 0.0750598C45.5127 0.681107 53.758 4.15385 60.6436 10.9743C67.3845 17.6504 68.8214 27.4241 68.995 34.8699C69.159 42.0174 65.2629 51.464 58.3484 57.486C51.0771 63.8255 42.6293 66.9038 34.4708 66.9904L34.4611 67ZM52.0897 24.846C50.9807 28.9345 52.6105 32.8401 49.6981 32.8305C45.802 32.8112 49.3316 29.1461 48.483 27.3087C47.0557 24.2111 49.4763 17.5927 44.1626 18.4489C37.2771 19.5552 30.459 22.8259 24.3063 26.366C14.817 31.8108 19.253 40.459 21.8183 47.3371C23.6988 52.3875 28.0867 46.7503 31.4523 46.9042C33.0917 46.9812 35.0494 46.3078 36.3802 45.3266C39.7169 42.8543 45.4645 44.6821 47.0846 39.4874C47.6825 37.573 47.3836 34.6486 49.4955 34.3119C52.6683 33.8117 50.9132 37.0824 51.7329 38.4965C51.974 38.9198 52.8997 39.218 53.4687 39.1603C63.3535 38.0733 68.0789 28.8383 62.4374 20.5556C60.7208 18.0352 61.5115 11.9844 54.8188 13.841C45.5127 16.4191 53.2759 22.7201 52.0993 24.8557L52.0897 24.846ZM30.054 4.12499C25.7336 5.35633 23.9399 11.7631 21.6736 17.6697C21.1432 19.0645 20.6417 21.2579 21.3361 22.1525C22.6187 23.8167 24.1327 21.7388 25.5021 21.2579C30.7483 19.4205 35.8401 17.1021 41.1731 15.5918C46.7278 14.0141 44.6062 10.3779 42.88 8.24227C40.662 5.49101 37.2674 3.55743 30.054 4.11537V4.12499ZM17.0543 41.1997C15.0677 38.3234 17.9608 31.2528 14.4891 31.4452C10.9017 31.6472 2.63708 32.513 3.65931 39.7279C4.3633 44.7686 6.17627 51.8296 12.2421 52.4356C21.6157 53.3784 16.2828 45.8268 17.0543 41.1997ZM2.90708 31.5414C9.66728 28.0783 17.9029 27.453 18.7419 17.737C19.0023 14.7068 20.6514 11.8016 21.6833 8.8387C22.0497 7.79976 24.3449 7.20333 22.8887 5.93352C22.2908 5.41405 20.2946 6.15477 19.0988 6.7031C8.74152 11.4264 4.9226 20.5845 2.90708 31.5414ZM32.4552 63.0078C38.0485 62.9597 44.1626 56.8992 45.1656 52.0508C46.0913 47.5295 45.5417 45.1438 40.1895 47.5776C37.0167 49.0206 33.545 49.8671 30.4686 51.464C28.3856 52.5511 23.5445 51.262 24.6053 54.9175C25.7336 58.8135 28.0963 63.3637 32.4552 63.0078ZM47.9236 59.2945C52.7937 59.1695 64.1346 44.8552 63.0063 40.863C62.8713 40.4013 61.849 39.9106 61.2415 39.901C56.0629 39.8144 44.7991 53.5611 46.236 58.2845C46.4096 58.8713 47.6343 59.131 47.9333 59.3042L47.9236 59.2945ZM54.4427 10.2047C51.9354 8.27113 50.1995 6.7993 48.2804 5.61606C48.0683 5.49101 45.4163 5.93352 46.2746 7.87672C47.0847 9.69486 47.0171 12.6578 50.3249 11.9459C51.5496 11.6862 52.6683 10.9647 54.4427 10.1951V10.2047ZM16.8229 55.1484C16.8614 55.1003 16.1864 56.0911 15.5113 57.082C17.064 58.0536 18.5394 59.208 20.2078 59.9198C21.2107 60.3431 22.233 59.5928 21.4904 58.371C20.69 57.0531 21.0179 54.5616 16.8325 55.1484H16.8229Z" fill="#FBBC04" fill-opacity="0.5"/>
</svg>
