<svg width="65" height="65" viewBox="0 0 65 65" fill="none" xmlns="http://www.w3.org/2000/svg">
<g id="video vector">
<path id="Vector" d="M52.4689 2.80705L6.60533 8.10985C4.30262 8.37609 2.64913 10.4672 2.91214 12.7806L8.15066 58.8557C8.41368 61.169 10.4936 62.8285 12.7963 62.5623L58.6599 57.2595C60.9626 56.9932 62.6161 54.9021 62.3531 52.5887L57.1145 6.51362C56.8515 4.20029 54.7716 2.5408 52.4689 2.80705Z" stroke="#FBBC04" stroke-opacity="0.5" stroke-width="4" stroke-linecap="round" stroke-linejoin="round"/>
<path id="Vector_2" d="M3.96802 23.2456L58.2232 16.9593M18.5752 21.5532L23.2543 6.20021M37.3558 19.3771L42.035 4.02416M27.757 48.2489L26.0269 32.2422C26.012 31.9948 26.0579 31.7472 26.1606 31.5209C26.2633 31.2946 26.4197 31.0967 26.616 30.9444C26.8123 30.7921 27.0426 30.6902 27.2865 30.6476C27.5305 30.605 27.7808 30.623 28.0153 30.7L42.7341 37.077C42.9734 37.1895 43.1796 37.3617 43.333 37.5772C43.4864 37.7928 43.5819 38.0445 43.6105 38.3084C43.639 38.5724 43.5996 38.8397 43.496 39.0851C43.3924 39.3304 43.2281 39.5455 43.0187 39.71L30.03 49.3397C29.8129 49.4596 29.5706 49.526 29.3235 49.5335C29.0764 49.5409 28.8315 49.4891 28.6092 49.3824C28.3869 49.2758 28.1936 49.1173 28.0454 48.9201C27.8972 48.723 27.7983 48.4929 27.757 48.2489Z" stroke="#FBBC04" stroke-opacity="0.5" stroke-width="4" stroke-linecap="round" stroke-linejoin="round"/>
</g>
</svg>
