<svg width="153" height="12" viewBox="0 0 153 12" fill="none" xmlns="http://www.w3.org/2000/svg">
<path d="M28.8552 8.89678C28.2307 8.5352 27.7133 8.01251 27.3563 7.38256C26.988 6.73609 26.7985 6.00198 26.8077 5.25673C26.7991 4.51311 26.9886 3.78076 27.3563 3.13583C27.7099 2.49682 28.2275 1.9653 28.8552 1.59694C29.4856 1.23322 30.2006 1.04431 30.9271 1.04946C31.4926 1.04489 32.0534 1.15214 32.5778 1.36513C33.065 1.55525 33.5012 1.85762 33.8514 2.24801L33.1754 2.92867C32.9133 2.61048 32.5766 2.36301 32.1958 2.20855C31.7924 2.03914 31.3592 1.95358 30.9222 1.957C30.3731 1.95694 29.8333 2.10056 29.3559 2.37379C28.8785 2.64702 28.4797 3.04049 28.1988 3.51562C27.9026 4.0378 27.752 4.63083 27.7629 5.23206C27.7514 5.83494 27.902 6.42972 28.1988 6.95344C28.4802 7.42929 28.8797 7.82322 29.358 8.09649C29.8364 8.36977 30.3771 8.51298 30.9271 8.51206C31.35 8.53337 31.7725 8.46244 32.1656 8.30409C32.5587 8.14575 32.9132 7.90375 33.2048 7.59465C33.4139 7.37458 33.58 7.11691 33.6946 6.83507C33.8147 6.51909 33.8858 6.18636 33.9053 5.8486H30.9663V4.97558H34.7625C34.799 5.16748 34.8186 5.36223 34.8212 5.5576C34.8217 6.0474 34.7423 6.53395 34.5861 6.99784C34.434 7.45749 34.1793 7.87593 33.8416 8.22105C33.4647 8.62002 33.0075 8.93333 32.5007 9.14003C31.9938 9.34673 31.449 9.44205 30.9026 9.4196C30.1866 9.42794 29.4808 9.24771 28.8552 8.89678Z" fill="#FEFEFE"/>
<path d="M36.9079 9.02981C36.4816 8.77587 36.1326 8.40909 35.8989 7.96936C35.6568 7.50583 35.5339 6.98865 35.5413 6.465C35.5318 5.93798 35.6548 5.41711 35.8989 4.95078C36.1325 4.50968 36.4814 4.14128 36.9079 3.8854C37.3528 3.62245 37.8616 3.48925 38.3774 3.50068C38.8929 3.4913 39.4011 3.62436 39.8468 3.8854C40.2666 4.14201 40.6074 4.51081 40.8314 4.95078C41.0777 5.41287 41.2025 5.93076 41.1939 6.45514C41.2025 6.97952 41.0777 7.49741 40.8314 7.9595C40.6019 8.40233 40.2519 8.77016 39.8224 9.01995C39.3779 9.28462 38.8691 9.41954 38.3529 9.4096C37.8456 9.42027 37.3453 9.28878 36.9079 9.02981ZM39.2933 8.29983C39.586 8.12373 39.8263 7.87159 39.9889 7.56984C40.1687 7.23029 40.2581 6.84967 40.2485 6.465C40.2574 6.0804 40.168 5.69995 39.9889 5.36016C39.8263 5.05842 39.586 4.80628 39.2933 4.63018C39.0126 4.4597 38.6905 4.37092 38.3627 4.3737C38.0384 4.37398 37.7202 4.46261 37.4418 4.63018C37.1491 4.80628 36.9089 5.05842 36.7463 5.36016C36.565 5.69933 36.4739 6.07992 36.4817 6.465C36.4738 6.84852 36.565 7.22753 36.7463 7.56491C36.9059 7.87011 37.1467 8.12456 37.4418 8.29983C37.7197 8.46855 38.0382 8.55727 38.3627 8.55631C38.6908 8.56147 39.0136 8.47251 39.2933 8.29983Z" fill="#FEFEFE"/>
<path d="M43.2071 9.02981C42.7808 8.77587 42.4318 8.40909 42.198 7.96936C41.956 7.50583 41.8331 6.98865 41.8405 6.465C41.831 5.93798 41.954 5.41711 42.198 4.95078C42.4302 4.50863 42.7795 4.13988 43.2071 3.8854C43.652 3.62245 44.1608 3.48925 44.6766 3.50068C45.192 3.49205 45.7 3.62506 46.146 3.8854C46.5657 4.14201 46.9066 4.51081 47.1306 4.95078C47.3803 5.41534 47.5068 5.93686 47.498 6.465C47.5053 6.98865 47.3824 7.50583 47.1404 7.96936C46.9076 8.41143 46.5563 8.77884 46.1264 9.02981C45.682 9.29448 45.1732 9.4294 44.657 9.41946C44.1471 9.42807 43.6449 9.29312 43.2071 9.02981ZM45.5925 8.29983C45.8852 8.12373 46.1255 7.87159 46.2881 7.56984C46.4679 7.23029 46.5573 6.84967 46.5477 6.465C46.5571 6.08193 46.4677 5.70294 46.2881 5.3651C46.127 5.06095 45.8865 4.80685 45.5925 4.63018C45.3108 4.46203 44.9893 4.37343 44.6619 4.3737C44.3376 4.37398 44.0194 4.46261 43.741 4.63018C43.4471 4.80685 43.2066 5.06095 43.0454 5.3651C42.8652 5.7027 42.7757 6.08185 42.7858 6.465C42.7762 6.84967 42.8657 7.23029 43.0454 7.56984C43.2081 7.87159 43.4483 8.12373 43.741 8.29983C44.0194 8.4674 44.3376 8.55602 44.6619 8.55631C44.99 8.56147 45.3128 8.47251 45.5925 8.29983Z" fill="#FEFEFE"/>
<path d="M49.2368 11.3633C48.8476 11.0846 48.5507 10.6945 48.3845 10.2437L49.2613 9.88362C49.3698 10.2078 49.5772 10.4892 49.854 10.6876C50.1536 10.8941 50.5099 11.0011 50.8729 10.9934C51.1199 11.0111 51.368 10.9764 51.6009 10.8914C51.8337 10.8064 52.0463 10.6731 52.2248 10.5002C52.566 10.1034 52.7415 9.58904 52.7146 9.06486V8.47298H52.6705C52.4724 8.75329 52.2103 8.98164 51.9064 9.13884C51.5598 9.32978 51.1699 9.42667 50.7749 9.41999C50.3137 9.41944 49.8621 9.28779 49.472 9.0402C49.0589 8.78119 48.721 8.41712 48.4923 7.98468C48.2531 7.51498 48.132 6.99334 48.1396 6.46553C48.1268 5.94047 48.2429 5.42035 48.4776 4.9513C48.705 4.5179 49.0432 4.1535 49.4573 3.89579C49.8462 3.64496 50.2983 3.51146 50.7602 3.51107C51.1552 3.50439 51.5451 3.60127 51.8917 3.79221C52.2018 3.9599 52.466 4.20219 52.6607 4.49753H52.7048V3.68863H53.6061V9.01554C53.6238 9.556 53.5005 10.0917 53.2485 10.5692C53.0255 10.9793 52.6838 11.3113 52.2689 11.5212C51.8342 11.7335 51.3559 11.84 50.8729 11.8319C50.291 11.8628 49.7154 11.698 49.2368 11.3633ZM51.7937 8.31515C52.0753 8.13824 52.3039 7.88763 52.455 7.5901C52.6285 7.24505 52.7144 6.86205 52.7048 6.47539C52.7138 6.08722 52.628 5.70276 52.455 5.35575C52.3073 5.05584 52.0779 4.80438 51.7937 4.6307C51.5219 4.46585 51.2098 4.38046 50.8924 4.38409C50.576 4.38047 50.2651 4.46773 49.9961 4.63563C49.7145 4.81254 49.4859 5.06315 49.3348 5.36069C49.1612 5.70573 49.0754 6.08873 49.085 6.47539C49.0754 6.86205 49.1612 7.24505 49.3348 7.5901C49.4845 7.88865 49.7134 8.13961 49.9961 8.31515C50.2675 8.47953 50.5782 8.56638 50.8949 8.56638C51.2116 8.56638 51.5223 8.47953 51.7937 8.31515Z" fill="#FEFEFE"/>
<path d="M54.7278 1.22705H55.6731V9.23714H54.7278V1.22705Z" fill="#FEFEFE"/>
<path d="M57.8774 9.03991C57.4608 8.78527 57.1219 8.42009 56.8977 7.98439C56.6529 7.51659 56.5299 6.99392 56.5401 6.46523C56.5357 5.95266 56.6497 5.44608 56.8732 4.98554C57.0853 4.54567 57.4142 4.17351 57.8235 3.91029C58.2478 3.64429 58.7393 3.50727 59.2391 3.51571C59.732 3.50554 60.2183 3.63179 60.6449 3.8807C61.0465 4.12186 61.3686 4.47702 61.5707 4.90169C61.7937 5.37781 61.9043 5.89944 61.8939 6.42577C61.9036 6.49944 61.9036 6.57407 61.8939 6.64773H57.5149C57.5157 7.02061 57.6191 7.38598 57.8137 7.70325C57.9837 7.97762 58.224 8.20082 58.5092 8.34938C58.7755 8.48885 59.0712 8.5616 59.3713 8.56147C59.7096 8.56234 60.0411 8.46574 60.3266 8.28309C60.6122 8.10043 60.8399 7.83934 60.9829 7.53061L61.8156 7.93506C61.5852 8.37287 61.2481 8.74455 60.8359 9.01524C60.3828 9.29489 59.8585 9.43544 59.3273 9.41969C58.8181 9.43341 58.3154 9.30174 57.8774 9.03991ZM60.8947 5.84869C60.875 5.61471 60.8101 5.38686 60.7037 5.1779C60.5788 4.94162 60.3925 4.74388 60.1649 4.60575C59.8755 4.44155 59.5465 4.36131 59.2146 4.37393C58.8175 4.36639 58.4323 4.51095 58.137 4.77838C57.8279 5.0577 57.6238 5.43565 57.559 5.84869H60.8947Z" fill="#FEFEFE"/>
<path d="M65.504 1.22718H67.9139C68.656 1.20406 69.3916 1.37393 70.0495 1.72041C70.6414 2.04528 71.1278 2.53504 71.4504 3.13105C71.7836 3.77286 71.952 4.4884 71.9403 5.21249C71.9533 5.93673 71.7848 6.65258 71.4504 7.29393C71.1273 7.90252 70.6332 8.40174 70.03 8.72924C69.3729 9.07806 68.6367 9.24807 67.8943 9.22247H65.4844L65.504 1.22718ZM67.9139 8.33465C68.3218 8.35671 68.7299 8.29556 69.1137 8.15486C69.4975 8.01416 69.8492 7.79682 70.1475 7.51589C70.4326 7.21221 70.6527 6.85283 70.7942 6.46002C70.9358 6.06721 70.9958 5.64932 70.9704 5.23222C70.992 4.81997 70.9302 4.40761 70.7887 4.02014C70.6473 3.63267 70.4291 3.27818 70.1475 2.97815C69.8492 2.69721 69.4975 2.47987 69.1137 2.33918C68.7299 2.19848 68.3218 2.13733 67.9139 2.15939H66.4444V8.33465H67.9139Z" fill="#FEFEFE"/>
<path d="M74.0758 9.03985C73.6597 8.78462 73.3209 8.4196 73.0961 7.98433C72.8552 7.51527 72.734 6.99319 72.7434 6.46518C72.739 5.95261 72.853 5.44603 73.0765 4.98548C73.2886 4.54561 73.6175 4.17345 74.0268 3.91024C74.4511 3.64423 74.9426 3.50722 75.4424 3.51565C75.9353 3.50599 76.4214 3.63221 76.8482 3.88064C77.2498 4.1218 77.5719 4.47697 77.7739 4.90163C77.997 5.37776 78.1076 5.89939 78.0972 6.42572C78.1069 6.49938 78.1069 6.57401 78.0972 6.64768H73.7182C73.719 7.02056 73.8224 7.38592 74.017 7.70319C74.187 7.97757 74.4273 8.20077 74.7125 8.34933C74.9788 8.4888 75.2745 8.56155 75.5746 8.56142C75.9129 8.56228 76.2444 8.46569 76.5299 8.28303C76.8155 8.10038 77.0432 7.83928 77.1862 7.53056L78.0189 7.93501C77.7895 8.37357 77.4522 8.7455 77.0392 9.01519C76.5939 9.27612 76.0888 9.41604 75.5736 9.42123C75.0584 9.42642 74.5507 9.2967 74.1003 9.04478L74.0758 9.03985ZM77.0931 5.84864C77.074 5.61454 77.0091 5.38657 76.9021 5.17784C76.7772 4.94157 76.5909 4.74383 76.3632 4.6057C76.0753 4.44239 75.7482 4.36217 75.4179 4.37388C75.0206 4.36534 74.6351 4.51003 74.3403 4.77833C74.0312 5.05764 73.8271 5.4356 73.7623 5.84864H77.0931Z" fill="#FEFEFE"/>
<path d="M78.3127 3.68799H79.3365L81.0264 8.12708L82.7408 3.68799H83.7204L81.4623 9.23685H80.5072L78.3127 3.68799Z" fill="#FEFEFE"/>
<path d="M85.4888 9.03985C85.0728 8.78462 84.734 8.4196 84.5092 7.98433C84.2682 7.51527 84.147 6.99319 84.1565 6.46518C84.1497 5.95236 84.2639 5.44522 84.4896 4.98548C84.7017 4.54561 85.0306 4.17345 85.4399 3.91024C85.8638 3.64345 86.3556 3.50637 86.8555 3.51565C87.3483 3.50599 87.8345 3.63221 88.2613 3.88064C88.6629 4.1218 88.985 4.47697 89.187 4.90163C89.4101 5.37776 89.5207 5.89939 89.5103 6.42572C89.5224 6.49921 89.5224 6.57419 89.5103 6.64768H85.1313C85.1336 7.02103 85.2387 7.38643 85.435 7.70319C85.6019 7.97834 85.8409 8.20189 86.1256 8.34933C86.3923 8.48754 86.6878 8.56022 86.9877 8.56142C87.3261 8.56289 87.6579 8.46654 87.9435 8.28381C88.2292 8.10109 88.4568 7.83966 88.5992 7.53056L89.4319 7.93501C89.2015 8.37281 88.8644 8.7445 88.4523 9.01519C87.9992 9.29484 87.4749 9.43539 86.9436 9.41964C86.4326 9.43594 85.9277 9.30412 85.4888 9.03985ZM88.5013 5.84864C88.4856 5.61456 88.4222 5.38623 88.3151 5.17784C88.1902 4.94157 88.004 4.74383 87.7763 4.6057C87.4867 4.44198 87.158 4.36177 86.8261 4.37388C86.4288 4.36534 86.0433 4.51003 85.7485 4.77833C85.4378 5.05635 85.2334 5.43494 85.1705 5.84864H88.5013Z" fill="#FEFEFE"/>
<path d="M90.4604 1.22705H91.4009V9.23714H90.4604V1.22705Z" fill="#FEFEFE"/>
<path d="M93.6688 9.03006C93.2518 8.77368 92.913 8.40684 92.6891 7.96961C92.4456 7.50645 92.321 6.9893 92.3266 6.46525C92.3203 5.94114 92.445 5.42383 92.6891 4.9609C92.9126 4.52215 93.2515 4.15363 93.6688 3.89551C94.1142 3.63376 94.6226 3.50065 95.1382 3.51079C95.6537 3.50242 96.1616 3.63541 96.6077 3.89551C97.0268 4.15013 97.3689 4.51508 97.5972 4.95103C97.8413 5.41397 97.9659 5.93127 97.9596 6.45539C97.9659 6.97951 97.8413 7.49681 97.5972 7.95975C97.3662 8.40147 97.0165 8.76892 96.5881 9.0202C96.1413 9.27994 95.6345 9.41668 95.1186 9.41668C94.6028 9.41668 94.0959 9.27994 93.6492 9.0202L93.6688 9.03006ZM96.0591 8.30008C96.3518 8.12398 96.592 7.87184 96.7547 7.57009C96.9322 7.22969 97.0215 6.84967 97.0143 6.46525C97.0215 6.08241 96.9322 5.70397 96.7547 5.36535C96.595 5.06015 96.3542 4.80569 96.0591 4.63043C95.7768 4.459 95.4532 4.3686 95.1235 4.36902C94.7985 4.36878 94.4797 4.45926 94.2027 4.63043C93.9089 4.80516 93.6683 5.05764 93.5071 5.36041C93.3292 5.70066 93.2399 6.08079 93.2475 6.46525C93.2403 6.8481 93.3296 7.22653 93.5071 7.56516C93.6682 7.8693 93.9087 8.1234 94.2027 8.30008C94.481 8.46765 94.7992 8.55627 95.1235 8.55656C95.4531 8.56104 95.7773 8.47217 96.0591 8.30008Z" fill="#FEFEFE"/>
<path d="M98.812 3.68839H99.7133V4.50715H99.7574C99.9519 4.21041 100.216 3.96648 100.526 3.7969C100.88 3.60048 101.279 3.50178 101.682 3.51082C102.146 3.51 102.6 3.64356 102.99 3.89554C103.405 4.15499 103.743 4.52106 103.97 4.95599C104.214 5.42047 104.337 5.93981 104.327 6.46528C104.336 6.99062 104.213 7.50964 103.97 7.97457C103.742 8.40798 103.404 8.77237 102.99 9.03009C102.601 9.2859 102.147 9.42137 101.682 9.41974C101.277 9.42711 100.877 9.32854 100.522 9.13367C100.208 8.96198 99.9442 8.71024 99.7574 8.40369H99.7133L99.7574 9.17313V11.6393H98.812V3.68839ZM102.442 8.30011C102.726 8.12274 102.956 7.87025 103.108 7.57012C103.28 7.22804 103.366 6.84862 103.358 6.46528C103.366 6.08353 103.28 5.7057 103.108 5.36538C102.956 5.06387 102.726 4.80976 102.442 4.63046C102.168 4.46426 101.855 4.37642 101.535 4.37642C101.216 4.37642 100.903 4.46426 100.629 4.63046C100.346 4.80725 100.116 5.05777 99.9631 5.35551C99.7907 5.70097 99.7049 6.08368 99.7133 6.47022C99.7053 6.85513 99.7911 7.23615 99.9631 7.57999C100.114 7.8807 100.344 8.1334 100.629 8.30997C100.902 8.47818 101.216 8.56538 101.535 8.56152C101.856 8.56521 102.171 8.47435 102.442 8.30011Z" fill="#FEFEFE"/>
<path d="M106.507 9.03991C106.091 8.78527 105.752 8.42009 105.528 7.98439C105.283 7.51659 105.16 6.99392 105.17 6.46523C105.166 5.95266 105.28 5.44608 105.503 4.98554C105.717 4.54666 106.045 4.17487 106.453 3.91029C106.878 3.64429 107.369 3.50727 107.869 3.51571C108.362 3.50554 108.848 3.63179 109.275 3.8807C109.672 4.12307 109.992 4.47588 110.196 4.89676C110.417 5.37329 110.526 5.89489 110.514 6.42084C110.526 6.49433 110.526 6.56931 110.514 6.6428H106.135C106.138 7.01536 106.241 7.38012 106.434 7.69831C106.604 7.97269 106.844 8.19589 107.129 8.34445C107.396 8.48319 107.691 8.5559 107.991 8.55654C108.33 8.55801 108.662 8.46166 108.947 8.27893C109.233 8.09621 109.46 7.83478 109.603 7.52568L110.436 7.93013C110.205 8.36794 109.868 8.73962 109.456 9.01031C109.003 9.28996 108.479 9.43051 107.947 9.41476C107.442 9.4281 106.943 9.29822 106.507 9.03991ZM109.525 5.84869C109.505 5.61471 109.44 5.38686 109.334 5.1779C109.211 4.93996 109.024 4.74166 108.795 4.60575C108.506 4.44082 108.176 4.36053 107.844 4.37393C107.447 4.36639 107.062 4.51095 106.767 4.77838C106.458 5.0577 106.254 5.43565 106.189 5.84869H109.525Z" fill="#FEFEFE"/>
<path d="M111.479 3.68836H112.38V4.5959H112.424C112.541 4.27268 112.767 4.00061 113.061 3.82646C113.349 3.62527 113.69 3.51534 114.041 3.51079C114.26 3.50916 114.477 3.5476 114.682 3.62424V4.64029C114.437 4.51332 114.164 4.45056 113.889 4.4578C113.629 4.45664 113.376 4.53773 113.164 4.68962C112.936 4.84384 112.75 5.05439 112.625 5.30122C112.491 5.55625 112.422 5.8411 112.424 6.12985V9.22242H111.479V3.68836Z" fill="#FEFEFE"/>
<path d="M119.527 8.89687C118.901 8.52782 118.385 7.99637 118.033 7.35799C117.664 6.71152 117.475 5.97741 117.484 5.23216C117.476 4.48705 117.666 3.75325 118.033 3.10633C118.394 2.47466 118.915 1.95119 119.544 1.58971C120.172 1.22823 120.885 1.04179 121.609 1.04955C122.172 1.04537 122.732 1.15262 123.254 1.36522C123.742 1.55419 124.179 1.85673 124.528 2.2481L123.842 2.92876C123.583 2.60758 123.245 2.35948 122.862 2.20864C122.408 2.01966 121.918 1.93531 121.427 1.96177C120.937 1.98823 120.458 2.12482 120.026 2.36155C119.543 2.6349 119.14 3.03334 118.861 3.51571C118.564 4.0379 118.414 4.63092 118.425 5.23216C118.412 5.83576 118.565 6.43116 118.866 6.95354C119.146 7.43039 119.545 7.82512 120.024 8.09854C120.502 8.37195 121.044 8.51455 121.594 8.51215C122.052 8.52644 122.509 8.44063 122.931 8.2606C123.281 8.09692 123.6 7.87141 123.872 7.59474C124.072 7.37283 124.23 7.11525 124.337 6.83516C124.457 6.51918 124.528 6.18646 124.547 5.8487H121.609V4.97568H125.429C125.463 5.16792 125.483 5.36247 125.488 5.55769C125.488 6.04749 125.409 6.53405 125.253 6.99793C125.101 7.45758 124.846 7.87602 124.508 8.22114C124.131 8.62011 123.674 8.93342 123.167 9.14012C122.661 9.34682 122.116 9.44214 121.569 9.4197C120.855 9.42717 120.151 9.24697 119.527 8.89687Z" fill="#FEFEFE"/>
<path d="M126.58 3.68838H127.482V4.59593H127.526C127.643 4.27271 127.868 4.00063 128.162 3.82649C128.45 3.62447 128.791 3.51446 129.142 3.51082C129.363 3.5088 129.582 3.54725 129.789 3.62426V4.64032C129.542 4.51253 129.267 4.44975 128.99 4.45782C128.729 4.45728 128.474 4.53827 128.26 4.68964C128.033 4.84516 127.848 5.05539 127.722 5.30125C127.589 5.55664 127.521 5.84153 127.526 6.12988V9.22245H126.58V3.68838Z" fill="#FEFEFE"/>
<path d="M131.258 9.03026C130.832 8.77632 130.483 8.40955 130.249 7.96981C130.007 7.50628 129.884 6.9891 129.891 6.46546C129.889 5.93556 130.022 5.41393 130.278 4.95123C130.503 4.51611 130.842 4.15114 131.258 3.89572C131.703 3.64334 132.205 3.51074 132.715 3.51074C133.226 3.51074 133.728 3.64334 134.173 3.89572C134.597 4.14862 134.944 4.51366 135.177 4.95123C135.419 5.41462 135.542 5.9319 135.534 6.45559C135.542 6.97928 135.419 7.49656 135.177 7.95995C134.955 8.40109 134.616 8.7716 134.197 9.03026C133.753 9.28545 133.251 9.41967 132.74 9.41967C132.229 9.41967 131.726 9.28545 131.283 9.03026H131.258ZM133.643 8.30028C133.936 8.12418 134.176 7.87204 134.339 7.5703C134.519 7.23075 134.608 6.85012 134.599 6.46546C134.608 6.08079 134.519 5.70017 134.339 5.36062C134.176 5.05887 133.936 4.80673 133.643 4.63063C133.364 4.45795 133.041 4.36899 132.713 4.37415C132.387 4.37379 132.067 4.46243 131.787 4.63063C131.496 4.80895 131.256 5.06055 131.092 5.36062C130.914 5.70102 130.825 6.08104 130.832 6.46546C130.824 6.84835 130.914 7.22689 131.092 7.56536C131.253 7.86951 131.493 8.12361 131.787 8.30028C132.065 8.46785 132.384 8.55648 132.708 8.55676C133.037 8.55767 133.36 8.46906 133.643 8.30028Z" fill="#FEFEFE"/>
<path d="M136.93 8.82253C136.555 8.36163 136.366 7.7751 136.401 7.18007V3.68799H137.347V7.02224C137.347 8.04816 137.802 8.55619 138.713 8.55619C139.006 8.56155 139.293 8.4716 139.531 8.29971C139.767 8.12689 139.954 7.89586 140.075 7.62891C140.203 7.35597 140.27 7.05787 140.271 6.75589V3.68799H141.201V9.23685H140.315V8.40329H140.271C140.088 8.70045 139.833 8.94642 139.531 9.11847C139.209 9.30959 138.842 9.4101 138.468 9.40948C138.185 9.42974 137.901 9.38774 137.635 9.28639C137.369 9.18505 137.129 9.02677 136.93 8.82253Z" fill="#FEFEFE"/>
<path d="M142.446 3.68839H143.342V4.50715H143.391C143.584 4.21062 143.846 3.96664 144.155 3.7969C144.509 3.60048 144.908 3.50178 145.311 3.51082C145.776 3.51098 146.232 3.64442 146.624 3.89554C147.029 4.15699 147.358 4.521 147.579 4.95106C147.821 5.41644 147.944 5.93516 147.937 6.46035C147.943 6.98543 147.82 7.5039 147.579 7.96964C147.359 8.39997 147.029 8.76407 146.624 9.02516C146.233 9.28031 145.777 9.41568 145.311 9.41481C144.906 9.42085 144.507 9.32236 144.15 9.12874C143.839 8.95828 143.577 8.70823 143.391 8.40369H143.347L143.391 9.17313V11.6393H142.446V3.68839ZM146.071 8.30011C146.355 8.12274 146.585 7.87025 146.737 7.57012C146.909 7.22804 146.994 6.84862 146.986 6.46528C146.994 6.08353 146.909 5.7057 146.737 5.36538C146.585 5.06387 146.355 4.80976 146.071 4.63046C145.798 4.46417 145.485 4.37625 145.167 4.37625C144.848 4.37625 144.536 4.46417 144.263 4.63046C143.979 4.80589 143.749 5.05676 143.597 5.35551C143.424 5.70097 143.339 6.08368 143.347 6.47022C143.339 6.85513 143.425 7.23615 143.597 7.57999C143.746 7.88176 143.977 8.13484 144.263 8.30997C144.534 8.47853 144.846 8.5658 145.164 8.56152C145.485 8.56579 145.8 8.47488 146.071 8.30011Z" fill="#FEFEFE"/>
<path d="M149.289 8.97109C148.9 8.69684 148.602 8.31218 148.431 7.86625L149.264 7.49633C149.393 7.82018 149.613 8.09943 149.896 8.3003C150.154 8.48405 150.462 8.58232 150.778 8.58144C151.089 8.59384 151.396 8.51131 151.659 8.34469C151.763 8.28869 151.85 8.2064 151.912 8.106C151.973 8.00561 152.008 7.89063 152.012 7.77254C152.013 7.66896 151.99 7.5666 151.944 7.47395C151.898 7.38131 151.831 7.30105 151.748 7.23985C151.479 7.05495 151.176 6.92891 150.856 6.86992L150.102 6.67756C149.709 6.59348 149.344 6.41207 149.039 6.14981C148.897 6.02899 148.783 5.87766 148.707 5.70695C148.631 5.53624 148.594 5.35049 148.598 5.16334C148.586 4.83688 148.691 4.51694 148.892 4.26073C149.097 4.0076 149.366 3.81501 149.671 3.70337C150.011 3.57126 150.374 3.50597 150.738 3.51101C151.191 3.50493 151.637 3.61891 152.032 3.84148C152.407 4.04706 152.701 4.37612 152.864 4.77369L152.027 5.13375C151.923 4.87788 151.732 4.66787 151.488 4.54187C151.24 4.41242 150.964 4.34637 150.685 4.34951C150.409 4.34473 150.137 4.41823 149.901 4.5616C149.798 4.61185 149.711 4.68941 149.649 4.7859C149.587 4.88239 149.552 4.99414 149.548 5.10909C149.545 5.19889 149.564 5.28804 149.605 5.36825C149.645 5.44845 149.705 5.51709 149.778 5.56779C150 5.71292 150.245 5.81653 150.503 5.8736L151.326 6.07089C151.786 6.16719 152.211 6.38708 152.556 6.70716C152.684 6.83642 152.786 6.99024 152.855 7.15963C152.924 7.32902 152.959 7.51056 152.957 7.69362C152.96 8.00651 152.864 8.31216 152.683 8.56664C152.482 8.83656 152.213 9.04767 151.904 9.17825C151.548 9.33512 151.162 9.41252 150.773 9.40514C150.244 9.42555 149.724 9.27328 149.289 8.97109Z" fill="#FEFEFE"/>
<path d="M8.73804 7.38241L2.59562 3.80648C2.19546 3.60008 1.73184 3.55634 1.30057 3.6843C0.869289 3.81226 0.503297 4.10213 0.2782 4.49404C0.0531037 4.88595 -0.0138991 5.34995 0.0910342 5.79019C0.195967 6.23042 0.464819 6.61325 0.842048 6.85959L6.98936 10.4355C7.39143 10.669 7.86915 10.7321 8.31743 10.611C8.76571 10.4898 9.14782 10.1943 9.37971 9.78938C9.6116 9.38452 9.67427 8.90347 9.55393 8.45208C9.43359 8.00069 9.14011 7.61591 8.73804 7.38241Z" fill="#FEFEFE"/>
<path d="M20.9935 3.80668L14.8511 0.235679C14.4509 0.0292804 13.9873 -0.0144582 13.5561 0.113499C13.1248 0.241456 12.7588 0.531333 12.5337 0.923243C12.3086 1.31515 12.2416 1.77915 12.3465 2.21939C12.4515 2.65962 12.7203 3.04245 13.0975 3.28879L19.2449 6.85979C19.4439 6.9754 19.6637 7.05041 19.8916 7.08051C20.1194 7.11061 20.351 7.09522 20.5729 7.03522C20.7949 6.97522 21.0029 6.87179 21.1852 6.73082C21.3675 6.58986 21.5204 6.41412 21.6352 6.21365C21.75 6.01318 21.8245 5.7919 21.8544 5.56245C21.8843 5.33299 21.869 5.09985 21.8094 4.87635C21.7498 4.65284 21.6471 4.44334 21.5071 4.2598C21.3671 4.07627 21.1926 3.9223 20.9935 3.80668Z" fill="#FEFEFE"/>
<path d="M18.9999 7.28382L16.1491 5.6167L13.1122 7.38247C12.735 7.62881 12.4661 8.01164 12.3612 8.45187C12.2562 8.8921 12.3232 9.3561 12.5483 9.74801C12.7734 10.1399 13.1394 10.4298 13.5707 10.5578C14.002 10.6857 14.4656 10.642 14.8658 10.4356L19.7885 7.56497C19.5108 7.52054 19.2435 7.42525 18.9999 7.28382Z" fill="#FEFEFE"/>
<path d="M2.83572 3.38252L5.7061 5.04964L8.73812 3.2888C9.14019 3.0553 9.43368 2.67053 9.55401 2.21913C9.67435 1.76774 9.61168 1.2867 9.37979 0.881829C9.1479 0.476962 8.76579 0.181435 8.31751 0.0602616C7.86924 -0.0609121 7.39151 0.0021932 6.98944 0.235695L2.052 3.10631C2.32752 3.15052 2.59296 3.24407 2.83572 3.38252Z" fill="#FEFEFE"/>
</svg>
