<svg width="91" height="24" viewBox="0 0 91 24" fill="none" xmlns="http://www.w3.org/2000/svg">
<path d="M83.4339 23.4241C82.323 23.4241 81.3149 23.2081 80.4098 22.7761C79.5252 22.3235 78.8257 21.7063 78.3114 20.9246C77.8177 20.1222 77.5708 19.2273 77.5708 18.2399C77.5708 16.6147 78.1777 15.3495 79.3914 14.4443C80.6258 13.5391 82.1996 13.0865 84.1128 13.0865C85.0591 13.0865 85.9128 13.1894 86.674 13.3951C87.4352 13.6008 88.0421 13.8271 88.4947 14.074V13.2717C88.4947 12.5311 88.2992 11.8728 87.9084 11.2967C87.5381 10.7001 87.034 10.2476 86.3963 9.93897C85.7586 9.60981 85.0694 9.44524 84.3288 9.44524C82.5801 9.44524 81.2429 10.155 80.3172 11.5745L78.1263 10.1241C78.764 9.1778 79.6075 8.44748 80.6566 7.93318C81.7058 7.3983 82.8887 7.13086 84.2054 7.13086C86.3037 7.13086 87.9598 7.6966 89.1735 8.82807C90.3873 9.95954 90.9942 11.4819 90.9942 13.3951V22.9303H88.4947V20.6777H88.3712C87.8775 21.4594 87.2089 22.1177 86.3654 22.6526C85.522 23.1669 84.5448 23.4241 83.4339 23.4241ZM83.6499 21.1097C84.4728 21.1097 85.2545 20.8937 85.9951 20.4617C86.7357 20.0297 87.3323 19.4433 87.7849 18.7027C88.2581 17.9621 88.4947 17.1598 88.4947 16.2958C87.3426 15.5552 86.0157 15.1849 84.5139 15.1849C83.2179 15.1849 82.179 15.4832 81.3972 16.0798C80.6361 16.6558 80.2555 17.3964 80.2555 18.3016C80.2555 19.1245 80.5949 19.8034 81.2738 20.3382C81.9527 20.8525 82.7447 21.1097 83.6499 21.1097Z" fill="#F9AB00"/>
<path d="M68.1686 23.4241C66.6874 23.4241 65.3605 23.0744 64.1879 22.3749C63.0358 21.6754 62.1306 20.7085 61.4723 19.4742C60.814 18.2399 60.4849 16.841 60.4849 15.2775C60.4849 13.7963 60.7934 12.4385 61.4106 11.2042C62.0278 9.94926 62.9021 8.96179 64.0336 8.24176C65.1856 7.50116 66.5022 7.13086 67.9834 7.13086C69.4646 7.13086 70.7607 7.4703 71.8716 8.14919C73.0031 8.8075 73.8671 9.74353 74.4637 10.9573C75.0603 12.1711 75.3586 13.57 75.3586 15.154C75.3586 15.442 75.338 15.6478 75.2969 15.7712H63.1387C63.1798 16.9232 63.4576 17.9004 63.9719 18.7027C64.4862 19.4845 65.1239 20.0708 65.8851 20.4617C66.6668 20.8525 67.4691 21.048 68.292 21.048C70.2258 21.048 71.7173 20.1017 72.7665 18.209L75.0809 19.3199C74.4226 20.5542 73.5071 21.552 72.3345 22.3132C71.1824 23.0538 69.7938 23.4241 68.1686 23.4241ZM72.5813 13.5803C72.5402 12.9631 72.3653 12.3459 72.0568 11.7288C71.7482 11.1116 71.2441 10.587 70.5447 10.155C69.8658 9.72296 68.9915 9.50695 67.9217 9.50695C66.7697 9.50695 65.7719 9.87725 64.9285 10.6179C64.085 11.3585 63.5501 12.3459 63.3238 13.5803H72.5813Z" fill="#F9AB00"/>
<path d="M49.7164 23.4238C48.3998 23.4238 47.186 23.074 46.0751 22.3746C44.9642 21.6751 44.0796 20.7082 43.4213 19.4739C42.763 18.219 42.4338 16.8201 42.4338 15.2772C42.4338 13.7342 42.763 12.3456 43.4213 11.1113C44.0796 9.85638 44.9642 8.8792 46.0751 8.17974C47.186 7.48028 48.3998 7.13056 49.7164 7.13056C50.9096 7.13056 51.9794 7.398 52.9257 7.93287C53.872 8.44718 54.5817 9.09521 55.0549 9.87695H55.1783L55.0549 7.77858V0.835449H57.647V22.93H55.1783V20.6465H55.0549C54.5817 21.4488 53.872 22.1174 52.9257 22.6523C51.9794 23.1666 50.9096 23.4238 49.7164 23.4238ZM50.1176 21.0477C51.0227 21.0477 51.8559 20.8214 52.6171 20.3688C53.3988 19.8956 54.016 19.2167 54.4686 18.3321C54.9418 17.4475 55.1783 16.4292 55.1783 15.2772C55.1783 14.1045 54.9418 13.0862 54.4686 12.2222C54.016 11.3376 53.3988 10.669 52.6171 10.2164C51.8559 9.74323 51.0227 9.50665 50.1176 9.50665C49.2124 9.50665 48.3689 9.74323 47.5872 10.2164C46.826 10.6896 46.2088 11.3684 45.7357 12.253C45.2831 13.1171 45.0568 14.1251 45.0568 15.2772C45.0568 16.4292 45.2831 17.4475 45.7357 18.3321C46.2088 19.1962 46.826 19.8648 47.5872 20.3379C48.3689 20.8111 49.2124 21.0477 50.1176 21.0477Z" fill="#F9AB00"/>
<path d="M33.0007 23.4241C31.5195 23.4241 30.1926 23.0744 29.02 22.3749C27.868 21.6754 26.9628 20.7085 26.3045 19.4742C25.6462 18.2399 25.317 16.841 25.317 15.2775C25.317 13.7963 25.6256 12.4385 26.2428 11.2042C26.8599 9.94926 27.7343 8.96179 28.8657 8.24176C30.0178 7.50116 31.3344 7.13086 32.8156 7.13086C34.2968 7.13086 35.5929 7.4703 36.7038 8.14919C37.8352 8.8075 38.6993 9.74353 39.2959 10.9573C39.8925 12.1711 40.1908 13.57 40.1908 15.154C40.1908 15.442 40.1702 15.6478 40.129 15.7712H27.9708C28.012 16.9232 28.2897 17.9004 28.804 18.7027C29.3183 19.4845 29.9561 20.0708 30.7172 20.4617C31.499 20.8525 32.3013 21.048 33.1242 21.048C35.058 21.048 36.5495 20.1017 37.5986 18.209L39.913 19.3199C39.2547 20.5542 38.3392 21.552 37.1666 22.3132C36.0146 23.0538 34.626 23.4241 33.0007 23.4241ZM37.4135 13.5803C37.3724 12.9631 37.1975 12.3459 36.8889 11.7288C36.5803 11.1116 36.0763 10.587 35.3768 10.155C34.698 9.72296 33.8236 9.50695 32.7539 9.50695C31.6018 9.50695 30.6041 9.87725 29.7606 10.6179C28.9172 11.3585 28.3823 12.3459 28.156 13.5803H37.4135Z" fill="#F9AB00"/>
<path d="M0.00598145 0.835449H3.80156L10.8681 18.9493H10.9916L18.0273 0.835449H21.8228V22.93H19.1999V8.88948L19.3233 4.69275H19.1999L12.0099 22.93H9.81894L2.62894 4.69275H2.50551L2.62894 8.88948V22.93H0.00598145V0.835449Z" fill="#F9AB00"/>
</svg>
